<svg width="14" height="15" viewBox="0 0 14 15" fill="none"
    xmlns="http://www.w3.org/2000/svg">
    <path d="M6.77223 0.617816C6.36322 0.636999 5.8553 0.746614 5.45431 0.897337C4.43847 1.28099 3.56164 2.08941 3.06976 3.0924C2.71421 3.8186 2.55649 4.63798 2.61797 5.46285C2.66075 6.06573 2.79976 6.58093 3.06708 7.12079C3.23283 7.45512 6.59312 12.8537 6.73213 13.0044C6.87381 13.1606 7.1251 13.1606 7.26678 13.0044C7.40312 12.8564 10.7714 7.45786 10.9345 7.12353C11.2847 6.41651 11.4397 5.61631 11.3809 4.80515C11.3034 3.68707 10.8784 2.73889 10.1004 1.94143C9.50698 1.33306 8.8654 0.954885 8.06876 0.749355C7.67045 0.647961 7.17857 0.595893 6.77223 0.617816ZM7.4352 3.10884C8.02599 3.24312 8.53658 3.6624 8.80391 4.22966C8.94559 4.53111 9.00441 4.79145 9.00441 5.1203C9.00441 5.44914 8.94559 5.70948 8.80391 6.01093C8.46441 6.73165 7.7747 7.1756 6.99946 7.1756C6.67866 7.1756 6.4247 7.11531 6.13065 6.97007C5.42758 6.62204 4.99451 5.91501 4.99451 5.1203C4.99451 4.1776 5.63074 3.34177 6.52362 3.11706C6.7749 3.05403 7.18124 3.05129 7.4352 3.10884Z" fill="#91C788"/>
    <path d="M3.51115 10.1489C1.98739 10.5846 1.13461 11.2176 1.01432 11.9986C0.899367 12.7303 1.47947 13.399 2.65036 13.8868C4.46818 14.6459 7.45956 14.8322 9.83342 14.3389C11.5069 13.9882 12.6323 13.3551 12.9184 12.6015C13.1269 12.0589 12.9317 11.4917 12.381 11.0368C12.0442 10.7627 11.6512 10.549 11.1032 10.3489C10.7958 10.2366 10.1515 10.0475 10.1355 10.0639C10.1302 10.0694 9.66768 10.8066 9.11164 11.6999C8.55293 12.596 8.04768 13.3853 7.99154 13.4538C7.86322 13.6073 7.65738 13.7498 7.44085 13.8347C7.21095 13.9279 6.78857 13.9279 6.55867 13.8347C6.34748 13.7525 6.14164 13.61 6.016 13.462C5.95986 13.399 5.44927 12.6043 4.88521 11.6999C4.32115 10.7929 3.85333 10.0529 3.84531 10.0557C3.83729 10.0557 3.68758 10.0968 3.51115 10.1489Z" fill="#EC7F3C"/>
</svg>
