<svg width="20" height="17" viewBox="0 0 20 17" fill="none" xmlns="http://www.w3.org/2000/svg">
<path d="M7.74639 1.02166C7.54911 1.06391 7.31895 1.28454 3.85248 4.73495C1.33013 7.25117 0.146454 8.46703 0.0853914 8.59378C-0.0226423 8.8238 -0.0273394 9.12425 0.0666029 9.35897C0.16994 9.59838 7.31426 16.7574 7.58199 16.8841C8.3805 17.2597 9.25417 16.3865 8.8784 15.5885C8.81734 15.4617 7.91549 14.5322 6.1071 12.7249C4.6322 11.2555 3.42504 10.035 3.42504 10.0162C3.42504 9.99272 6.98076 9.97863 11.3303 9.97863C18.9208 9.97863 19.2402 9.97394 19.4187 9.88944C20.1938 9.53266 20.1938 8.45294 19.4187 8.09617C19.2402 8.01167 18.9208 8.00697 11.3303 8.00697C6.98076 8.00697 3.42504 7.99289 3.42504 7.97411C3.42504 7.95533 4.66039 6.70192 6.16816 5.19031C8.8784 2.47693 8.91128 2.43937 8.96294 2.19996C9.07098 1.68357 8.77976 1.18127 8.29126 1.03574C8.03292 0.955935 8.04231 0.955935 7.74639 1.02166Z" fill="#CE1F6A"/>
</svg>
