<svg width="14" height="15" viewBox="0 0 14 15" fill="none" xmlns="http://www.w3.org/2000/svg">
<path d="M1.39726 1.50938C0.769863 1.59838 0.243836 2.07786 0.0493151 2.73821C0.00273973 2.90187 0 3.11146 0 7.00182C0 10.8922 0.00273973 11.1018 0.0493151 11.2654C0.219178 11.8454 0.624658 12.2703 1.17808 12.4483C1.33425 12.4971 1.58356 12.5 7 12.5C12.4164 12.5 12.6658 12.4971 12.8219 12.4483C13.3781 12.2674 13.7781 11.8483 13.9507 11.2654C13.9973 11.1018 14 10.8922 14 7.00182C14 3.11146 13.9973 2.90187 13.9507 2.73821C13.7808 2.15825 13.3973 1.75342 12.8356 1.55531C12.6904 1.50651 12.4521 1.50363 7.08219 1.50076C4 1.49789 1.44384 1.50363 1.39726 1.50938ZM4.69589 3.97279C5.16986 4.09051 5.56986 4.45801 5.74247 4.93462C5.99726 5.63517 5.69863 6.47066 5.06575 6.82094C4.32603 7.23438 3.4137 6.9243 3.05479 6.13761C2.77808 5.52606 2.88493 4.85997 3.33973 4.38336C3.69315 4.01299 4.21644 3.85508 4.69589 3.97279ZM12.0411 4.30584C12.0986 4.34029 12.1699 4.41494 12.2027 4.47524C12.3205 4.69344 12.2466 4.98342 12.0411 5.10401C11.9397 5.1643 11.9178 5.1643 10.2192 5.1643C8.69041 5.1643 8.49041 5.15856 8.40822 5.11837C8.08493 4.95758 8.08219 4.45801 8.40274 4.29436C8.48219 4.25129 8.68219 4.24555 10.2164 4.24555C11.9205 4.24555 11.9397 4.24555 12.0411 4.30584ZM12.0603 6.76064C12.2082 6.87549 12.2658 6.99895 12.2548 7.17695C12.2411 7.35784 12.1671 7.49278 12.0329 7.5703C11.9534 7.61336 11.8 7.61911 10.2795 7.62772C9.1726 7.63346 8.57808 7.62485 8.50685 7.60475C8.10137 7.48991 8.0411 6.93865 8.41096 6.74342C8.51781 6.68599 8.56712 6.68599 10.2521 6.69174C11.9589 6.70035 11.9836 6.70035 12.0603 6.76064ZM5.77808 7.66217C6.08219 7.74256 6.29863 7.87176 6.52055 8.1072C6.86849 8.46896 7 8.82785 7 9.40494C7 9.78393 6.9726 9.86432 6.8 9.99926C6.72329 10.0596 6.71233 10.0596 4.36986 10.0596C2.0274 10.0596 2.01644 10.0596 1.93973 9.99926C1.76712 9.86432 1.73973 9.78393 1.73973 9.40494C1.73973 9.00873 1.78082 8.81062 1.92329 8.51202C2.04384 8.25937 2.33973 7.94641 2.58082 7.81147C2.93151 7.61624 3.01096 7.60762 4.3589 7.60762C5.47397 7.60475 5.58356 7.61049 5.77808 7.66217ZM12.0329 9.18961C12.1671 9.26713 12.2411 9.40207 12.2548 9.58295C12.2658 9.76096 12.2082 9.88442 12.0603 9.99926C11.9836 10.0596 11.9589 10.0596 10.2932 10.0682C9.36438 10.0739 8.56164 10.0682 8.51233 10.0596C8.38356 10.0337 8.2137 9.86432 8.17534 9.72076C8.12055 9.50543 8.23014 9.27861 8.43562 9.18099C8.54247 9.12931 8.63836 9.12644 10.2466 9.13505C11.8 9.1408 11.9534 9.14367 12.0329 9.18961Z" fill="#91C788"/>
</svg>
