<svg width="14" height="14" viewBox="0 0 14 14" fill="none" xmlns="http://www.w3.org/2000/svg">
<path d="M5.4725 0.962866C3.1796 1.49628 1.24476 1.95349 1.17906 1.97337C1.0181 2.01975 0.870279 2.14896 0.781586 2.31793L0.709317 2.45377L0.699462 7.88066L0.692892 13.3042H0.502365C0.0654659 13.3042 -0.148056 13.6223 0.11474 13.8874L0.226429 14H2.1974H4.17166L4.18151 12.847L4.19137 11.6974L4.28334 11.5384C4.33262 11.4522 4.43774 11.3396 4.51001 11.2899L4.64469 11.2004L5.55791 11.1905C6.40871 11.1805 6.48098 11.1838 6.59595 11.2468C6.75691 11.3296 6.88503 11.4655 6.94744 11.6212C6.99015 11.7239 7 11.9293 7 12.8735V14H8.74102H10.482V7.24786V0.492403L10.4065 0.346626C10.3638 0.267111 10.2685 0.157778 10.193 0.101455C9.92361 -0.0873931 10.0911 -0.117211 5.4725 0.962866ZM3.99755 4.14678C4.17823 4.23292 4.20779 4.329 4.20779 4.82265C4.20779 5.4919 4.14866 5.55154 3.50481 5.55154C2.83797 5.55154 2.79526 5.50847 2.79526 4.82265C2.79526 4.28924 2.81497 4.22629 3.0055 4.14015C3.15989 4.07389 3.85302 4.0772 3.99755 4.14678ZM6.09992 4.14678C6.2806 4.23292 6.31016 4.329 6.31016 4.82265C6.31016 5.4919 6.25103 5.55154 5.60718 5.55154C4.94034 5.55154 4.89763 5.50847 4.89763 4.82265C4.89763 4.28924 4.91734 4.22629 5.10787 4.14015C5.26226 4.07389 5.95539 4.0772 6.09992 4.14678ZM8.20229 4.14678C8.38297 4.23292 8.41253 4.329 8.41253 4.82265C8.41253 5.4919 8.3534 5.55154 7.70955 5.55154C7.0427 5.55154 7 5.50847 7 4.82265C7 4.28924 7.01971 4.22629 7.21024 4.14015C7.36463 4.07389 8.05775 4.0772 8.20229 4.14678ZM3.99755 6.26717C4.17823 6.35332 4.20779 6.4494 4.20779 6.94305C4.20779 7.6123 4.14866 7.67194 3.50481 7.67194C2.83797 7.67194 2.79526 7.62887 2.79526 6.94305C2.79526 6.40964 2.81497 6.34669 3.0055 6.26055C3.15989 6.19429 3.85302 6.1976 3.99755 6.26717ZM6.09992 6.26717C6.2806 6.35332 6.31016 6.4494 6.31016 6.94305C6.31016 7.6123 6.25103 7.67194 5.60718 7.67194C4.94034 7.67194 4.89763 7.62887 4.89763 6.94305C4.89763 6.40964 4.91734 6.34669 5.10787 6.26055C5.26226 6.19429 5.95539 6.1976 6.09992 6.26717ZM8.20229 6.26717C8.38297 6.35332 8.41253 6.4494 8.41253 6.94305C8.41253 7.6123 8.3534 7.67194 7.70955 7.67194C7.0427 7.67194 7 7.62887 7 6.94305C7 6.40964 7.01971 6.34669 7.21024 6.26055C7.36463 6.19429 8.05775 6.1976 8.20229 6.26717ZM3.99755 8.38757C4.17823 8.47371 4.20779 8.56979 4.20779 9.06345C4.20779 9.7327 4.14866 9.79234 3.50481 9.79234C2.83797 9.79234 2.79526 9.74926 2.79526 9.06345C2.79526 8.53004 2.81497 8.46709 3.0055 8.38095C3.15989 8.31468 3.85302 8.318 3.99755 8.38757ZM6.09992 8.38757C6.2806 8.47371 6.31016 8.56979 6.31016 9.06345C6.31016 9.7327 6.25103 9.79234 5.60718 9.79234C4.94034 9.79234 4.89763 9.74926 4.89763 9.06345C4.89763 8.53004 4.91734 8.46709 5.10787 8.38095C5.26226 8.31468 5.95539 8.318 6.09992 8.38757ZM8.20229 8.38757C8.38297 8.47371 8.41253 8.56979 8.41253 9.06345C8.41253 9.7327 8.3534 9.79234 7.70955 9.79234C7.0427 9.79234 7 9.74926 7 9.06345C7 8.53004 7.01971 8.46709 7.21024 8.38095C7.36463 8.31468 8.05775 8.318 8.20229 8.38757Z" fill="#91C788"/>
<path d="M11.2048 8.25173V14H12.4893H13.7737L13.8854 13.8874C14.1482 13.6223 13.9346 13.3042 13.4977 13.3042H13.3072V8.6228C13.3072 3.38145 13.3203 3.70613 13.0773 3.48415C12.9984 3.41458 12.5977 3.18928 12.0918 2.93417C11.622 2.69894 11.2311 2.50347 11.2213 2.50347C11.2114 2.50347 11.2048 5.09102 11.2048 8.25173Z" fill="#640F6C"/>
<path d="M4.89771 12.9564V14H5.58755H6.27739V12.9564V11.9127H5.58755H4.89771V12.9564Z" fill="#640F6C"/>
</svg>
