<svg width="14" height="15" viewBox="0 0 14 15" fill="none" xmlns="http://www.w3.org/2000/svg">
<path d="M2.94794 0.586764C2.78034 0.636785 2.60944 0.774342 2.53057 0.921279C2.47142 1.02757 2.46484 1.10573 2.46484 1.54654C2.46484 2.11553 2.49442 2.21244 2.71461 2.38439C3.03667 2.63762 3.52306 2.55321 3.73667 2.20932C3.82869 2.06551 3.82869 2.053 3.82869 1.54654C3.82869 1.04008 3.82869 1.02757 3.73667 0.883763C3.58221 0.630532 3.23386 0.499227 2.94794 0.586764Z" fill="#640F6C"/>
<path d="M10.6873 0.577331C10.5263 0.611721 10.339 0.749278 10.2503 0.899341C10.1747 1.02439 10.1714 1.05878 10.1714 1.54649C10.1714 2.03419 10.1747 2.06858 10.2503 2.19363C10.4639 2.55003 10.9601 2.6407 11.2855 2.38434C11.5057 2.21239 11.5352 2.11548 11.5352 1.54649C11.5352 1.1088 11.5254 1.02752 11.4695 0.924352C11.3841 0.76491 11.2 0.6211 11.0226 0.580458C10.8648 0.542942 10.8418 0.542942 10.6873 0.577331Z" fill="#640F6C"/>
<path d="M1.09437 1.59336C0.584976 1.69965 0.184037 2.07168 0.0460094 2.56251C0.0131455 2.67819 0 2.99707 0 3.78803V4.86035H6.99999H14V3.78803C14 2.6563 13.9868 2.54688 13.8357 2.26864C13.7338 2.07794 13.4742 1.82471 13.277 1.72154C13.0831 1.6215 12.7446 1.54646 12.4685 1.54646H12.2648L12.2549 1.8841C12.2418 2.19986 12.2319 2.23738 12.1169 2.45935C11.6831 3.29407 10.5559 3.47852 9.86572 2.82512C9.57652 2.55001 9.4352 2.19048 9.43192 1.74029V1.54646H6.99999H4.56807V1.74029C4.56479 2.18736 4.42018 2.55314 4.13756 2.82512C3.4507 3.47852 2.3169 3.29407 1.8831 2.45935C1.76807 2.23738 1.75821 2.19986 1.74507 1.8841L1.73521 1.54646L1.51502 1.54959C1.39671 1.54959 1.2061 1.57147 1.09437 1.59336Z" fill="#640F6C"/>
<path d="M4.67979e-06 9.46234C4.67979e-06 13.6516 -0.00328171 13.5203 0.164324 13.8298C0.266202 14.0205 0.525826 14.2737 0.723009 14.3769C1.07137 14.5582 0.828173 14.552 7 14.552C13.1718 14.552 12.9286 14.5582 13.277 14.3769C13.4742 14.2737 13.7338 14.0205 13.8357 13.8298C14.0033 13.5203 14 13.6516 14 9.46234V5.5482H7H4.67979e-06V9.46234ZM3.8155 7.29269C3.94366 7.35521 4.01925 7.42086 4.09155 7.53341C4.18686 7.68347 4.19014 7.69285 4.2 8.16805C4.21315 8.74642 4.18357 8.85584 3.95352 9.04655C3.75634 9.21224 3.57888 9.24975 3.03662 9.231C2.5831 9.21537 2.43193 9.17472 2.28075 9.01216C2.11972 8.84646 2.09014 8.74017 2.077 8.31499C2.06057 7.80227 2.1 7.61782 2.26104 7.44587C2.46151 7.23641 2.56996 7.20515 3.14179 7.20515C3.62488 7.20515 3.6446 7.20827 3.8155 7.29269ZM7.56197 7.24266C7.74272 7.29269 7.93662 7.46151 8.00235 7.62095C8.04507 7.7335 8.05493 7.85229 8.04507 8.27435C8.03521 8.77456 8.03192 8.79331 7.94648 8.91837C7.89718 8.98714 7.78545 9.08719 7.7 9.13408C7.54554 9.22162 7.53568 9.22162 7 9.22162C6.46432 9.22162 6.45446 9.22162 6.3 9.13408C6.21455 9.08719 6.10282 8.98714 6.05352 8.91837C5.96808 8.79331 5.96479 8.77456 5.95493 8.27435C5.94507 7.85229 5.95493 7.7335 5.99765 7.62095C6.06009 7.47088 6.27042 7.28018 6.42488 7.23954C6.57277 7.19577 7.41408 7.1989 7.56197 7.24266ZM11.4859 7.26455C11.6864 7.34896 11.8507 7.54279 11.8967 7.74287C11.9559 7.99611 11.9263 8.69015 11.8507 8.83083C11.6831 9.13721 11.5155 9.21224 10.9634 9.231C10.4211 9.24975 10.2437 9.21224 10.0465 9.04655C9.81643 8.85584 9.78685 8.74642 9.8 8.16805C9.80986 7.69285 9.81314 7.68347 9.90845 7.53341C9.98075 7.42086 10.0563 7.35521 10.1845 7.29269C10.3554 7.20827 10.3751 7.20515 10.8582 7.20515C11.2657 7.20515 11.3775 7.21765 11.4859 7.26455ZM3.70376 10.9098C3.90094 10.9661 4.11456 11.1662 4.17371 11.3538C4.19672 11.4288 4.20657 11.6508 4.2 11.9446C4.19014 12.4073 4.18686 12.4198 4.09155 12.5668C4.01925 12.6793 3.94366 12.745 3.8155 12.8075C3.6446 12.8919 3.62488 12.895 3.14179 12.895C2.73099 12.895 2.62254 12.8825 2.5108 12.8356C2.33662 12.7606 2.15259 12.5511 2.10658 12.3792C2.06057 12.2072 2.06057 11.5413 2.10329 11.3913C2.1723 11.1631 2.33991 10.9911 2.5831 10.9098C2.76385 10.8473 3.48357 10.8473 3.70376 10.9098ZM7.7 10.9661C7.78545 11.0161 7.89718 11.113 7.94648 11.1818C8.03192 11.3069 8.03521 11.3256 8.04507 11.8258C8.05822 12.4261 8.02864 12.548 7.81831 12.7168C7.63756 12.8638 7.49953 12.895 7 12.895C6.51033 12.895 6.36573 12.8669 6.19155 12.7293C5.98122 12.5636 5.94836 12.4511 5.94836 11.8759C5.94836 11.41 5.95493 11.3631 6.02394 11.235C6.10939 11.0818 6.30657 10.9348 6.47747 10.8911C6.53991 10.8786 6.80282 10.8692 7.06573 10.8723C7.52253 10.8786 7.54883 10.8817 7.7 10.9661ZM11.5023 10.938C11.6634 11.0192 11.762 11.1099 11.8408 11.2537C11.8967 11.3569 11.9131 11.4476 11.923 11.804C11.9394 12.3511 11.8967 12.5167 11.6864 12.7012C11.4859 12.8794 11.3742 12.9013 10.7925 12.8888C10.3061 12.8794 10.293 12.8763 10.1385 12.7856C10.0202 12.7168 9.95117 12.6449 9.88544 12.523C9.79671 12.3604 9.79343 12.3417 9.79343 11.8821C9.79343 11.3506 9.82629 11.2412 10.03 11.0568C10.2108 10.8942 10.362 10.8629 10.9108 10.8723C11.3019 10.8786 11.407 10.8911 11.5023 10.938Z" fill="#640F6C"/>
</svg>
