<svg width="14" height="14" viewBox="0 0 14 14" fill="none" xmlns="http://www.w3.org/2000/svg">
<path fill-rule="evenodd" clip-rule="evenodd" d="M1.10454 2.01515C1.10454 2.02398 1.05852 2.0303 0.994083 2.0303C0.929647 2.0303 0.883629 2.03662 0.883629 2.04545C0.883629 2.05379 0.858777 2.06061 0.828402 2.06061C0.798028 2.06061 0.773175 2.06742 0.773175 2.07576C0.773175 2.08409 0.754537 2.09091 0.731755 2.09091C0.708974 2.09091 0.690335 2.09773 0.690335 2.10606C0.690335 2.11439 0.677909 2.12121 0.662722 2.12121C0.647534 2.12121 0.635108 2.12803 0.635108 2.13636C0.635108 2.1447 0.622682 2.15152 0.607495 2.15152C0.592308 2.15152 0.579882 2.15833 0.579882 2.16667C0.579882 2.175 0.568823 2.18182 0.55532 2.18182C0.541803 2.18182 0.521797 2.19545 0.510848 2.21212C0.499899 2.22879 0.482379 2.24242 0.471913 2.24242C0.461462 2.24242 0.435477 2.26288 0.414201 2.28788C0.392925 2.31288 0.368239 2.33333 0.359347 2.33333C0.338623 2.33333 0.303748 2.37141 0.303748 2.39405C0.303748 2.40362 0.278895 2.43767 0.248521 2.4697C0.218146 2.50173 0.193294 2.53718 0.193294 2.5485C0.193294 2.55982 0.180868 2.57889 0.16568 2.59091C0.150493 2.60292 0.138067 2.62488 0.138067 2.63971C0.138067 2.65453 0.131854 2.66667 0.12426 2.66667C0.116667 2.66667 0.110454 2.6803 0.110454 2.69697C0.110454 2.71364 0.104241 2.72727 0.0966469 2.72727C0.0890533 2.72727 0.0828402 2.74091 0.0828402 2.75758C0.0828402 2.77424 0.0766272 2.78788 0.0690335 2.78788C0.0614398 2.78788 0.0552268 2.80833 0.0552268 2.83333C0.0552268 2.85833 0.0490138 2.87879 0.0414201 2.87879C0.0338264 2.87879 0.0276134 2.90295 0.0276134 2.9325C0.0276134 2.98994 0.0767791 3.06061 0.116736 3.06061C0.128471 3.06061 0.138067 3.06742 0.138067 3.07576C0.138067 3.08409 0.150493 3.09091 0.16568 3.09091C0.180868 3.09091 0.193294 3.09773 0.193294 3.10606C0.193294 3.11439 0.20572 3.12121 0.220907 3.12121C0.236095 3.12121 0.248521 3.12803 0.248521 3.13636C0.248521 3.1447 0.25958 3.15152 0.273083 3.15152C0.2866 3.15152 0.306606 3.16515 0.317554 3.18182C0.328503 3.19848 0.348509 3.21212 0.362026 3.21212C0.375529 3.21212 0.386588 3.21894 0.386588 3.22727C0.386588 3.23561 0.399014 3.24242 0.414201 3.24242C0.429389 3.24242 0.441815 3.24924 0.441815 3.25758C0.441815 3.26591 0.454241 3.27273 0.469428 3.27273C0.484615 3.27273 0.497041 3.27955 0.497041 3.28788C0.497041 3.29621 0.508101 3.30303 0.521604 3.30303C0.53512 3.30303 0.555126 3.31667 0.566075 3.33333C0.577024 3.35 0.59703 3.36364 0.610546 3.36364C0.624049 3.36364 0.635108 3.37045 0.635108 3.37879C0.635108 3.38712 0.647534 3.39394 0.662722 3.39394C0.677909 3.39394 0.690335 3.40076 0.690335 3.40909C0.690335 3.41742 0.702761 3.42424 0.717949 3.42424C0.733136 3.42424 0.745562 3.43106 0.745562 3.43939C0.745562 3.44773 0.756621 3.45455 0.770124 3.45455C0.783641 3.45455 0.803647 3.46818 0.814596 3.48485C0.825544 3.50152 0.84555 3.51515 0.859067 3.51515C0.87257 3.51515 0.883629 3.52197 0.883629 3.5303C0.883629 3.53864 0.896055 3.54545 0.911243 3.54545C0.92643 3.54545 0.938856 3.55227 0.938856 3.56061C0.938856 3.56894 0.949915 3.57576 0.963418 3.57576C0.976935 3.57576 0.996941 3.58939 1.00789 3.60606C1.01884 3.62273 1.03884 3.63636 1.05236 3.63636C1.06586 3.63636 1.07692 3.64318 1.07692 3.65152C1.07692 3.65985 1.08935 3.66667 1.10454 3.66667C1.11972 3.66667 1.13215 3.67348 1.13215 3.68182C1.13215 3.69015 1.14458 3.69697 1.15976 3.69697C1.17495 3.69697 1.18738 3.70379 1.18738 3.71212C1.18738 3.72045 1.19844 3.72727 1.21194 3.72727C1.22546 3.72727 1.24546 3.74091 1.25641 3.75758C1.26736 3.77424 1.28736 3.78788 1.30088 3.78788C1.31438 3.78788 1.32544 3.7947 1.32544 3.80303C1.32544 3.81136 1.33787 3.81818 1.35306 3.81818C1.36824 3.81818 1.38067 3.825 1.38067 3.83333C1.38067 3.84167 1.3931 3.84848 1.40828 3.84848C1.42347 3.84848 1.4359 3.8553 1.4359 3.86364C1.4359 3.87197 1.44696 3.87879 1.46046 3.87879C1.47398 3.87879 1.49398 3.89242 1.50493 3.90909C1.51588 3.92576 1.53589 3.93939 1.5494 3.93939C1.56291 3.93939 1.57396 3.94621 1.57396 3.95455C1.57396 3.96288 1.58639 3.9697 1.60158 3.9697C1.61677 3.9697 1.62919 3.97652 1.62919 3.98485C1.62919 3.99318 1.64162 4 1.6568 4C1.67199 4 1.68442 4.00682 1.68442 4.01515C1.68442 4.02348 1.69548 4.0303 1.70898 4.0303C1.7225 4.0303 1.7425 4.04394 1.75345 4.06061C1.7644 4.07727 1.78441 4.09091 1.79792 4.09091C1.81143 4.09091 1.82249 4.09773 1.82249 4.10606C1.82249 4.11439 1.83491 4.12121 1.8501 4.12121C1.86529 4.12121 1.87771 4.12803 1.87771 4.13636C1.87771 4.1447 1.89014 4.15152 1.90533 4.15152C1.92051 4.15152 1.93294 4.15833 1.93294 4.16667C1.93294 4.175 1.944 4.18182 1.9575 4.18182C1.97102 4.18182 1.99102 4.19545 2.00197 4.21212C2.01292 4.22879 2.03293 4.24242 2.04644 4.24242C2.05995 4.24242 2.07101 4.24924 2.07101 4.25758C2.07101 4.26591 2.08343 4.27273 2.09862 4.27273C2.11381 4.27273 2.12623 4.27955 2.12623 4.28788C2.12623 4.29621 2.13866 4.30303 2.15385 4.30303C2.16903 4.30303 2.18146 4.30985 2.18146 4.31818C2.18146 4.32652 2.19252 4.33333 2.20602 4.33333C2.21954 4.33333 2.23954 4.34697 2.25049 4.36364C2.26144 4.3803 2.28145 4.39394 2.29496 4.39394C2.30847 4.39394 2.31953 4.40076 2.31953 4.40909C2.31953 4.41742 2.33195 4.42424 2.34714 4.42424C2.36233 4.42424 2.37475 4.43106 2.37475 4.43939C2.37475 4.44773 2.38718 4.45455 2.40237 4.45455C2.41755 4.45455 2.42998 4.46136 2.42998 4.4697C2.42998 4.47803 2.44104 4.48485 2.45454 4.48485C2.46806 4.48485 2.48807 4.49849 2.49901 4.51515C2.50996 4.53182 2.52997 4.54545 2.54348 4.54545C2.55699 4.54545 2.56805 4.55227 2.56805 4.56061C2.56805 4.56894 2.58047 4.57576 2.59566 4.57576C2.61085 4.57576 2.62327 4.58258 2.62327 4.59091C2.62327 4.59924 2.6357 4.60606 2.65089 4.60606C2.66607 4.60606 2.6785 4.61288 2.6785 4.62121C2.6785 4.62955 2.68956 4.63636 2.70306 4.63636C2.71658 4.63636 2.73659 4.65 2.74753 4.66667C2.75848 4.68333 2.77849 4.69697 2.79201 4.69697C2.80551 4.69697 2.81657 4.70379 2.81657 4.71212C2.81657 4.72045 2.82899 4.72727 2.84418 4.72727C2.85937 4.72727 2.87179 4.73409 2.87179 4.74242C2.87179 4.75076 2.88422 4.75758 2.89941 4.75758C2.9146 4.75758 2.92702 4.76439 2.92702 4.77273C2.92702 4.78106 2.93808 4.78788 2.95158 4.78788C2.9651 4.78788 2.98511 4.80152 2.99606 4.81818C3.007 4.83485 3.02701 4.84848 3.04053 4.84848C3.05403 4.84848 3.06509 4.8553 3.06509 4.86364C3.06509 4.87197 3.07751 4.87879 3.0927 4.87879C3.10789 4.87879 3.12032 4.88561 3.12032 4.89394C3.12032 4.90227 3.13274 4.90909 3.14793 4.90909C3.16312 4.90909 3.17554 4.91591 3.17554 4.92424C3.17554 4.93258 3.1866 4.93939 3.2001 4.93939C3.21362 4.93939 3.23363 4.95303 3.24458 4.9697C3.25552 4.98636 3.27553 5 3.28905 5C3.30255 5 3.31361 5.00682 3.31361 5.01515C3.31361 5.02348 3.32604 5.0303 3.34122 5.0303C3.35641 5.0303 3.36884 5.03712 3.36884 5.04545C3.36884 5.05379 3.38126 5.06061 3.39645 5.06061C3.41164 5.06061 3.42406 5.06742 3.42406 5.07576C3.42406 5.08409 3.43512 5.09091 3.44863 5.09091C3.46214 5.09091 3.48215 5.10455 3.4931 5.12121C3.50405 5.13788 3.52405 5.15152 3.53757 5.15152C3.55107 5.15152 3.56213 5.15833 3.56213 5.16667C3.56213 5.175 3.57456 5.18182 3.58974 5.18182C3.60493 5.18182 3.61736 5.18864 3.61736 5.19697C3.61736 5.2053 3.62842 5.21212 3.64192 5.21212C3.65544 5.21212 3.67544 5.22576 3.68639 5.24242C3.69734 5.25909 3.71734 5.27273 3.73086 5.27273C3.74436 5.27273 3.75542 5.27955 3.75542 5.28788C3.75542 5.29621 3.76785 5.30303 3.78304 5.30303C3.79822 5.30303 3.81065 5.30985 3.81065 5.31818C3.81065 5.32652 3.82308 5.33333 3.83826 5.33333C3.85345 5.33333 3.86588 5.34015 3.86588 5.34848C3.86588 5.35682 3.87694 5.36364 3.89044 5.36364C3.90396 5.36364 3.92396 5.37727 3.93491 5.39394C3.94586 5.41061 3.96587 5.42424 3.97938 5.42424C3.99289 5.42424 4.00394 5.43106 4.00394 5.43939C4.00394 5.44773 4.01637 5.45455 4.03156 5.45455C4.04675 5.45455 4.05917 5.46136 4.05917 5.4697C4.05917 5.47803 4.0716 5.48485 4.08678 5.48485C4.10197 5.48485 4.1144 5.49167 4.1144 5.5C4.1144 5.50833 4.12546 5.51515 4.13896 5.51515C4.15248 5.51515 4.17248 5.52879 4.18343 5.54545C4.19438 5.56212 4.21439 5.57576 4.2279 5.57576C4.24141 5.57576 4.25247 5.58258 4.25247 5.59091C4.25247 5.59924 4.26489 5.60606 4.28008 5.60606C4.29527 5.60606 4.30769 5.61288 4.30769 5.62121C4.30769 5.62955 4.32012 5.63636 4.33531 5.63636C4.35049 5.63636 4.36292 5.64318 4.36292 5.65152C4.36292 5.65985 4.37398 5.66667 4.38748 5.66667C4.401 5.66667 4.421 5.6803 4.43195 5.69697C4.4429 5.71364 4.46291 5.72727 4.47642 5.72727C4.48993 5.72727 4.50099 5.73409 4.50099 5.74242C4.50099 5.75076 4.51341 5.75758 4.5286 5.75758C4.54379 5.75758 4.55621 5.76439 4.55621 5.77273C4.55621 5.78106 4.56864 5.78788 4.58383 5.78788C4.59901 5.78788 4.61144 5.7947 4.61144 5.80303C4.61144 5.81136 4.6225 5.81818 4.636 5.81818C4.64952 5.81818 4.66952 5.83182 4.68047 5.84849C4.69142 5.86515 4.71143 5.87879 4.72495 5.87879C4.73845 5.87879 4.74951 5.88561 4.74951 5.89394C4.74951 5.90227 4.76193 5.90909 4.77712 5.90909C4.79231 5.90909 4.80473 5.91591 4.80473 5.92424C4.80473 5.93258 4.81716 5.93939 4.83235 5.93939C4.84753 5.93939 4.85996 5.94621 4.85996 5.95455C4.85996 5.96288 4.87102 5.9697 4.88452 5.9697C4.89804 5.9697 4.91805 5.98333 4.92899 6C4.93994 6.01667 4.95995 6.0303 4.97347 6.0303C4.98697 6.0303 4.99803 6.03712 4.99803 6.04545C4.99803 6.05379 5.01045 6.06061 5.02564 6.06061C5.04083 6.06061 5.05325 6.06742 5.05325 6.07576C5.05325 6.08409 5.06568 6.09091 5.08087 6.09091C5.09606 6.09091 5.10848 6.09773 5.10848 6.10606C5.10848 6.11439 5.11954 6.12121 5.13304 6.12121C5.14656 6.12121 5.16657 6.13485 5.17752 6.15152C5.18846 6.16818 5.20847 6.18182 5.22199 6.18182C5.23549 6.18182 5.24655 6.18864 5.24655 6.19697C5.24655 6.2053 5.25897 6.21212 5.27416 6.21212C5.28935 6.21212 5.30177 6.21894 5.30177 6.22727C5.30177 6.23561 5.3142 6.24242 5.32939 6.24242C5.34458 6.24242 5.357 6.24924 5.357 6.25758C5.357 6.26591 5.36806 6.27273 5.38156 6.27273C5.39508 6.27273 5.41509 6.28636 5.42604 6.30303C5.43698 6.3197 5.45699 6.33333 5.47051 6.33333C5.48401 6.33333 5.49507 6.34015 5.49507 6.34848C5.49507 6.35682 5.50749 6.36364 5.52268 6.36364C5.53787 6.36364 5.5503 6.37045 5.5503 6.37879C5.5503 6.38712 5.56272 6.39394 5.57791 6.39394C5.5931 6.39394 5.60552 6.40076 5.60552 6.40909C5.60552 6.41742 5.61658 6.42424 5.63008 6.42424C5.6436 6.42424 5.66361 6.43788 5.67456 6.45455C5.6855 6.47121 5.70551 6.48485 5.71903 6.48485C5.73253 6.48485 5.74359 6.49167 5.74359 6.5C5.74359 6.50833 5.75602 6.51515 5.7712 6.51515C5.78639 6.51515 5.79882 6.52197 5.79882 6.5303C5.79882 6.53864 5.81124 6.54545 5.82643 6.54545C5.84162 6.54545 5.85404 6.55227 5.85404 6.56061C5.85404 6.56894 5.8651 6.57576 5.8786 6.57576C5.89212 6.57576 5.91213 6.58939 5.92308 6.60606C5.93403 6.62273 5.95403 6.63636 5.96755 6.63636C5.98105 6.63636 5.99211 6.64318 5.99211 6.65152C5.99211 6.65985 6.00454 6.66667 6.01972 6.66667C6.03491 6.66667 6.04734 6.67348 6.04734 6.68182C6.04734 6.69015 6.05976 6.69697 6.07495 6.69697C6.09014 6.69697 6.10256 6.70379 6.10256 6.71212C6.10256 6.72046 6.11362 6.72727 6.12713 6.72727C6.14064 6.72727 6.16065 6.74091 6.1716 6.75758C6.18255 6.77424 6.20255 6.78788 6.21607 6.78788C6.22957 6.78788 6.24063 6.7947 6.24063 6.80303C6.24063 6.81136 6.25306 6.81818 6.26824 6.81818C6.28343 6.81818 6.29586 6.825 6.29586 6.83333C6.29586 6.84167 6.30692 6.84848 6.32042 6.84848C6.33394 6.84848 6.35394 6.86212 6.36489 6.87879C6.37584 6.89545 6.39585 6.90909 6.40936 6.90909C6.42287 6.90909 6.43392 6.91591 6.43392 6.92424C6.43392 6.93258 6.44635 6.93939 6.46154 6.93939C6.47673 6.93939 6.48915 6.94621 6.48915 6.95455C6.48915 6.96288 6.50158 6.9697 6.51677 6.9697C6.53195 6.9697 6.54438 6.97652 6.54438 6.98485C6.54438 6.99318 6.55544 7 6.56894 7C6.58246 7 6.60246 7.01364 6.61341 7.0303C6.62436 7.04697 6.64437 7.06061 6.65788 7.06061C6.67139 7.06061 6.68245 7.06742 6.68245 7.07576C6.68245 7.08409 6.69487 7.09091 6.71006 7.09091C6.72525 7.09091 6.73767 7.09773 6.73767 7.10606C6.73767 7.11439 6.7501 7.12121 6.76529 7.12121C6.78047 7.12121 6.7929 7.12803 6.7929 7.13636C6.7929 7.1447 6.80396 7.15152 6.81746 7.15152C6.83098 7.15152 6.85098 7.16515 6.86193 7.18182C6.87288 7.19849 6.89289 7.21212 6.9064 7.21212C6.91991 7.21212 6.93097 7.21894 6.93097 7.22727C6.93097 7.23561 6.94288 7.24242 6.95743 7.24242C6.97199 7.24242 6.98752 7.25095 6.99195 7.26136C6.99838 7.27652 7.00162 7.27652 7.00805 7.26136C7.01248 7.25095 7.02801 7.24242 7.04257 7.24242C7.05712 7.24242 7.06903 7.23561 7.06903 7.22727C7.06903 7.21894 7.08009 7.21212 7.0936 7.21212C7.10711 7.21212 7.12712 7.19849 7.13807 7.18182C7.14902 7.16515 7.16902 7.15152 7.18254 7.15152C7.19604 7.15152 7.2071 7.1447 7.2071 7.13636C7.2071 7.12803 7.21953 7.12121 7.23471 7.12121C7.2499 7.12121 7.26233 7.11439 7.26233 7.10606C7.26233 7.09773 7.27475 7.09091 7.28994 7.09091C7.30513 7.09091 7.31755 7.08409 7.31755 7.07576C7.31755 7.06742 7.32861 7.06061 7.34212 7.06061C7.35563 7.06061 7.37564 7.04697 7.38659 7.0303C7.39754 7.01364 7.41754 7 7.43106 7C7.44456 7 7.45562 6.99318 7.45562 6.98485C7.45562 6.97652 7.46805 6.9697 7.48323 6.9697C7.49842 6.9697 7.51085 6.96288 7.51085 6.95455C7.51085 6.94621 7.52191 6.93939 7.53541 6.93939C7.54893 6.93939 7.56893 6.92576 7.57988 6.90909C7.59083 6.89242 7.61084 6.87879 7.62435 6.87879C7.63786 6.87879 7.64891 6.87197 7.64891 6.86364C7.64891 6.8553 7.66134 6.84848 7.67653 6.84848C7.69172 6.84848 7.70414 6.84167 7.70414 6.83333C7.70414 6.825 7.71657 6.81818 7.73176 6.81818C7.74694 6.81818 7.75937 6.81136 7.75937 6.80303C7.75937 6.7947 7.77043 6.78788 7.78393 6.78788C7.79745 6.78788 7.81745 6.77424 7.8284 6.75758C7.83935 6.74091 7.85936 6.72727 7.87287 6.72727C7.88638 6.72727 7.89744 6.72046 7.89744 6.71212C7.89744 6.70379 7.90986 6.69697 7.92505 6.69697C7.94024 6.69697 7.95266 6.69015 7.95266 6.68182C7.95266 6.67348 7.96509 6.66667 7.98028 6.66667C7.99546 6.66667 8.00789 6.65985 8.00789 6.65152C8.00789 6.64318 8.01895 6.63636 8.03245 6.63636C8.04597 6.63636 8.06597 6.62273 8.07692 6.60606C8.08787 6.58939 8.10788 6.57576 8.12139 6.57576C8.1349 6.57576 8.14596 6.56894 8.14596 6.56061C8.14596 6.55227 8.15838 6.54545 8.17357 6.54545C8.18876 6.54545 8.20118 6.53864 8.20118 6.5303C8.20118 6.52197 8.21361 6.51515 8.2288 6.51515C8.24398 6.51515 8.25641 6.50833 8.25641 6.5C8.25641 6.49167 8.26747 6.48485 8.28097 6.48485C8.29449 6.48485 8.3145 6.47121 8.32544 6.45455C8.33639 6.43788 8.3564 6.42424 8.36992 6.42424C8.38342 6.42424 8.39448 6.41742 8.39448 6.40909C8.39448 6.40076 8.4069 6.39394 8.42209 6.39394C8.43728 6.39394 8.4497 6.38712 8.4497 6.37879C8.4497 6.37045 8.46213 6.36364 8.47732 6.36364C8.4925 6.36364 8.50493 6.35682 8.50493 6.34848C8.50493 6.34015 8.51599 6.33333 8.52949 6.33333C8.54301 6.33333 8.56302 6.3197 8.57396 6.30303C8.58491 6.28636 8.60492 6.27273 8.61844 6.27273C8.63194 6.27273 8.643 6.26591 8.643 6.25758C8.643 6.24924 8.65542 6.24242 8.67061 6.24242C8.6858 6.24242 8.69822 6.23561 8.69822 6.22727C8.69822 6.21894 8.71065 6.21212 8.72584 6.21212C8.74102 6.21212 8.75345 6.2053 8.75345 6.19697C8.75345 6.18864 8.76451 6.18182 8.77801 6.18182C8.79153 6.18182 8.81154 6.16818 8.82248 6.15152C8.83343 6.13485 8.85344 6.12121 8.86696 6.12121C8.88046 6.12121 8.89152 6.11439 8.89152 6.10606C8.89152 6.09773 8.90394 6.09091 8.91913 6.09091C8.93432 6.09091 8.94675 6.08409 8.94675 6.07576C8.94675 6.06742 8.95917 6.06061 8.97436 6.06061C8.98955 6.06061 9.00197 6.05379 9.00197 6.04545C9.00197 6.03712 9.01303 6.0303 9.02653 6.0303C9.04005 6.0303 9.06006 6.01667 9.07101 6C9.08195 5.98333 9.10196 5.9697 9.11548 5.9697C9.12898 5.9697 9.14004 5.96288 9.14004 5.95455C9.14004 5.94621 9.15247 5.93939 9.16765 5.93939C9.18284 5.93939 9.19527 5.93258 9.19527 5.92424C9.19527 5.91591 9.20769 5.90909 9.22288 5.90909C9.23807 5.90909 9.25049 5.90227 9.25049 5.89394C9.25049 5.88561 9.26155 5.87879 9.27505 5.87879C9.28857 5.87879 9.30858 5.86515 9.31953 5.84849C9.33047 5.83182 9.35048 5.81818 9.364 5.81818C9.3775 5.81818 9.38856 5.81136 9.38856 5.80303C9.38856 5.7947 9.40099 5.78788 9.41617 5.78788C9.43136 5.78788 9.44379 5.78106 9.44379 5.77273C9.44379 5.76439 9.45621 5.75758 9.4714 5.75758C9.48659 5.75758 9.49901 5.75076 9.49901 5.74242C9.49901 5.73409 9.51007 5.72727 9.52358 5.72727C9.53709 5.72727 9.5571 5.71364 9.56805 5.69697C9.579 5.6803 9.599 5.66667 9.61252 5.66667C9.62602 5.66667 9.63708 5.65985 9.63708 5.65152C9.63708 5.64318 9.64951 5.63636 9.66469 5.63636C9.67988 5.63636 9.69231 5.62955 9.69231 5.62121C9.69231 5.61288 9.70473 5.60606 9.71992 5.60606C9.73511 5.60606 9.74753 5.59924 9.74753 5.59091C9.74753 5.58258 9.75859 5.57576 9.7721 5.57576C9.78561 5.57576 9.80562 5.56212 9.81657 5.54545C9.82752 5.52879 9.84752 5.51515 9.86104 5.51515C9.87454 5.51515 9.8856 5.50833 9.8856 5.5C9.8856 5.49167 9.89803 5.48485 9.91321 5.48485C9.9284 5.48485 9.94083 5.47803 9.94083 5.4697C9.94083 5.46136 9.95325 5.45455 9.96844 5.45455C9.98363 5.45455 9.99605 5.44773 9.99605 5.43939C9.99605 5.43106 10.0071 5.42424 10.0206 5.42424C10.0341 5.42424 10.0541 5.41061 10.0651 5.39394C10.076 5.37727 10.096 5.36364 10.1096 5.36364C10.1231 5.36364 10.1341 5.35682 10.1341 5.34848C10.1341 5.34015 10.1465 5.33333 10.1617 5.33333C10.1769 5.33333 10.1893 5.32652 10.1893 5.31818C10.1893 5.30985 10.2018 5.30303 10.217 5.30303C10.2322 5.30303 10.2446 5.29621 10.2446 5.28788C10.2446 5.27955 10.2556 5.27273 10.2691 5.27273C10.2827 5.27273 10.3027 5.25909 10.3136 5.24242C10.3246 5.22576 10.3446 5.21212 10.3581 5.21212C10.3716 5.21212 10.3826 5.2053 10.3826 5.19697C10.3826 5.18864 10.3951 5.18182 10.4103 5.18182C10.4254 5.18182 10.4379 5.175 10.4379 5.16667C10.4379 5.15833 10.4489 5.15152 10.4624 5.15152C10.4759 5.15152 10.496 5.13788 10.5069 5.12121C10.5179 5.10455 10.5379 5.09091 10.5514 5.09091C10.5649 5.09091 10.5759 5.08409 10.5759 5.07576C10.5759 5.06742 10.5884 5.06061 10.6035 5.06061C10.6187 5.06061 10.6312 5.05379 10.6312 5.04545C10.6312 5.03712 10.6436 5.0303 10.6588 5.0303C10.674 5.0303 10.6864 5.02348 10.6864 5.01515C10.6864 5.00682 10.6974 5 10.711 5C10.7245 5 10.7445 4.98636 10.7554 4.9697C10.7664 4.95303 10.7864 4.93939 10.7999 4.93939C10.8134 4.93939 10.8245 4.93258 10.8245 4.92424C10.8245 4.91591 10.8369 4.90909 10.8521 4.90909C10.8673 4.90909 10.8797 4.90227 10.8797 4.89394C10.8797 4.88561 10.8921 4.87879 10.9073 4.87879C10.9225 4.87879 10.9349 4.87197 10.9349 4.86364C10.9349 4.8553 10.946 4.84848 10.9595 4.84848C10.973 4.84848 10.993 4.83485 11.0039 4.81818C11.0149 4.80152 11.0349 4.78788 11.0484 4.78788C11.0619 4.78788 11.073 4.78106 11.073 4.77273C11.073 4.76439 11.0854 4.75758 11.1006 4.75758C11.1158 4.75758 11.1282 4.75076 11.1282 4.74242C11.1282 4.73409 11.1406 4.72727 11.1558 4.72727C11.171 4.72727 11.1834 4.72045 11.1834 4.71212C11.1834 4.70379 11.1945 4.69697 11.208 4.69697C11.2215 4.69697 11.2415 4.68333 11.2525 4.66667C11.2634 4.65 11.2834 4.63636 11.2969 4.63636C11.3104 4.63636 11.3215 4.62955 11.3215 4.62121C11.3215 4.61288 11.3339 4.60606 11.3491 4.60606C11.3643 4.60606 11.3767 4.59924 11.3767 4.59091C11.3767 4.58258 11.3892 4.57576 11.4043 4.57576C11.4195 4.57576 11.432 4.56894 11.432 4.56061C11.432 4.55227 11.443 4.54545 11.4565 4.54545C11.47 4.54545 11.49 4.53182 11.501 4.51515C11.5119 4.49849 11.5319 4.48485 11.5455 4.48485C11.559 4.48485 11.57 4.47803 11.57 4.4697C11.57 4.46136 11.5824 4.45455 11.5976 4.45455C11.6128 4.45455 11.6252 4.44773 11.6252 4.43939C11.6252 4.43106 11.6377 4.42424 11.6529 4.42424C11.668 4.42424 11.6805 4.41742 11.6805 4.40909C11.6805 4.40076 11.6915 4.39394 11.705 4.39394C11.7186 4.39394 11.7386 4.3803 11.7495 4.36364C11.7605 4.34697 11.7805 4.33333 11.794 4.33333C11.8075 4.33333 11.8185 4.32652 11.8185 4.31818C11.8185 4.30985 11.831 4.30303 11.8462 4.30303C11.8613 4.30303 11.8738 4.29621 11.8738 4.28788C11.8738 4.27955 11.8862 4.27273 11.9014 4.27273C11.9166 4.27273 11.929 4.26591 11.929 4.25758C11.929 4.24924 11.9401 4.24242 11.9536 4.24242C11.9671 4.24242 11.9871 4.22879 11.998 4.21212C12.009 4.19545 12.029 4.18182 12.0425 4.18182C12.056 4.18182 12.0671 4.175 12.0671 4.16667C12.0671 4.15833 12.0795 4.15152 12.0947 4.15152C12.1099 4.15152 12.1223 4.1447 12.1223 4.13636C12.1223 4.12803 12.1347 4.12121 12.1499 4.12121C12.1651 4.12121 12.1775 4.11439 12.1775 4.10606C12.1775 4.09773 12.1886 4.09091 12.2021 4.09091C12.2156 4.09091 12.2356 4.07727 12.2465 4.06061C12.2575 4.04394 12.2775 4.0303 12.291 4.0303C12.3045 4.0303 12.3156 4.02348 12.3156 4.01515C12.3156 4.00682 12.328 4 12.3432 4C12.3584 4 12.3708 3.99318 12.3708 3.98485C12.3708 3.97652 12.3832 3.9697 12.3984 3.9697C12.4136 3.9697 12.426 3.96288 12.426 3.95455C12.426 3.94621 12.4371 3.93939 12.4506 3.93939C12.4641 3.93939 12.4841 3.92576 12.4951 3.90909C12.506 3.89242 12.526 3.87879 12.5395 3.87879C12.553 3.87879 12.5641 3.87197 12.5641 3.86364C12.5641 3.8553 12.5765 3.84848 12.5917 3.84848C12.6069 3.84848 12.6193 3.84167 12.6193 3.83333C12.6193 3.825 12.6318 3.81818 12.6469 3.81818C12.6621 3.81818 12.6746 3.81136 12.6746 3.80303C12.6746 3.7947 12.6856 3.78788 12.6991 3.78788C12.7126 3.78788 12.7326 3.77424 12.7436 3.75758C12.7545 3.74091 12.7745 3.72727 12.7881 3.72727C12.8016 3.72727 12.8126 3.72045 12.8126 3.71212C12.8126 3.70379 12.825 3.69697 12.8402 3.69697C12.8554 3.69697 12.8678 3.69015 12.8678 3.68182C12.8678 3.67348 12.8803 3.66667 12.8955 3.66667C12.9107 3.66667 12.9231 3.65985 12.9231 3.65152C12.9231 3.64318 12.9341 3.63636 12.9476 3.63636C12.9612 3.63636 12.9812 3.62273 12.9921 3.60606C13.0031 3.58939 13.0231 3.57576 13.0366 3.57576C13.0501 3.57576 13.0611 3.56894 13.0611 3.56061C13.0611 3.55227 13.0736 3.54545 13.0888 3.54545C13.1039 3.54545 13.1164 3.53864 13.1164 3.5303C13.1164 3.52197 13.1274 3.51515 13.1409 3.51515C13.1544 3.51515 13.1745 3.50152 13.1854 3.48485C13.1964 3.46818 13.2164 3.45455 13.2299 3.45455C13.2434 3.45455 13.2544 3.44773 13.2544 3.43939C13.2544 3.43106 13.2669 3.42424 13.2821 3.42424C13.2972 3.42424 13.3097 3.41742 13.3097 3.40909C13.3097 3.40076 13.3221 3.39394 13.3373 3.39394C13.3525 3.39394 13.3649 3.38712 13.3649 3.37879C13.3649 3.37045 13.376 3.36364 13.3895 3.36364C13.403 3.36364 13.423 3.35 13.4339 3.33333C13.4449 3.31667 13.4649 3.30303 13.4784 3.30303C13.4919 3.30303 13.503 3.29621 13.503 3.28788C13.503 3.27955 13.5154 3.27273 13.5306 3.27273C13.5458 3.27273 13.5582 3.26591 13.5582 3.25758C13.5582 3.24924 13.5706 3.24242 13.5858 3.24242C13.601 3.24242 13.6134 3.23561 13.6134 3.22727C13.6134 3.21894 13.6245 3.21212 13.638 3.21212C13.6515 3.21212 13.6715 3.19848 13.6824 3.18182C13.6934 3.16515 13.7134 3.15152 13.7269 3.15152C13.7404 3.15152 13.7515 3.1447 13.7515 3.13636C13.7515 3.12803 13.7639 3.12121 13.7791 3.12121C13.7943 3.12121 13.8067 3.11439 13.8067 3.10606C13.8067 3.09773 13.8191 3.09091 13.8343 3.09091C13.8495 3.09091 13.8619 3.08409 13.8619 3.07576C13.8619 3.06742 13.8715 3.06061 13.8833 3.06061C13.9168 3.06061 13.9724 2.99018 13.9724 2.94765C13.9724 2.92644 13.9662 2.90909 13.9586 2.90909C13.951 2.90909 13.9448 2.88864 13.9448 2.86364C13.9448 2.83864 13.9386 2.81818 13.931 2.81818C13.9234 2.81818 13.9172 2.79773 13.9172 2.77273C13.9172 2.74773 13.9109 2.72727 13.9034 2.72727C13.8958 2.72727 13.8895 2.71364 13.8895 2.69697C13.8895 2.6803 13.8833 2.66667 13.8757 2.66667C13.8681 2.66667 13.8619 2.65453 13.8619 2.63971C13.8619 2.62488 13.8495 2.60292 13.8343 2.59091C13.8191 2.57889 13.8067 2.56026 13.8067 2.54948C13.8067 2.52395 13.5502 2.24242 13.5269 2.24242C13.5171 2.24242 13.5001 2.22879 13.4892 2.21212C13.4782 2.19545 13.4582 2.18182 13.4447 2.18182C13.4312 2.18182 13.4201 2.175 13.4201 2.16667C13.4201 2.15833 13.4077 2.15152 13.3925 2.15152C13.3773 2.15152 13.3649 2.1447 13.3649 2.13636C13.3649 2.12803 13.3525 2.12121 13.3373 2.12121C13.3221 2.12121 13.3097 2.11439 13.3097 2.10606C13.3097 2.09773 13.291 2.09091 13.2682 2.09091C13.2455 2.09091 13.2268 2.08409 13.2268 2.07576C13.2268 2.06742 13.202 2.06061 13.1716 2.06061C13.1412 2.06061 13.1164 2.05379 13.1164 2.04545C13.1164 2.03662 13.0704 2.0303 13.0059 2.0303C12.9415 2.0303 12.8955 2.02398 12.8955 2.01515C12.8955 2.00508 10.9211 2 7 2C3.0789 2 1.10454 2.00508 1.10454 2.01515ZM0 7.42424C0 9.75758 0.00463905 10.9394 0.0138067 10.9394C0.0214004 10.9394 0.0276134 10.9735 0.0276134 11.0152C0.0276134 11.0568 0.0338264 11.0909 0.0414201 11.0909C0.0490138 11.0909 0.0552268 11.1114 0.0552268 11.1364C0.0552268 11.1614 0.0614398 11.1818 0.0690335 11.1818C0.0766272 11.1818 0.0828402 11.2023 0.0828402 11.2273C0.0828402 11.2523 0.0890533 11.2727 0.0966469 11.2727C0.104241 11.2727 0.110454 11.2864 0.110454 11.303C0.110454 11.3197 0.116667 11.3333 0.12426 11.3333C0.131854 11.3333 0.138067 11.3455 0.138067 11.3603C0.138067 11.3751 0.150493 11.3971 0.16568 11.4091C0.180868 11.4211 0.193294 11.4402 0.193294 11.4515C0.193294 11.4628 0.218146 11.4983 0.248521 11.5303C0.278895 11.5623 0.303748 11.5993 0.303748 11.6125C0.303748 11.6256 0.313467 11.6364 0.325355 11.6364C0.337243 11.6364 0.377213 11.6705 0.414201 11.7121C0.451189 11.7538 0.489793 11.7879 0.499996 11.7879C0.510213 11.7879 0.527513 11.8015 0.538462 11.8182C0.550156 11.836 0.574207 11.8485 0.59674 11.8485C0.617836 11.8485 0.635108 11.8553 0.635108 11.8636C0.635108 11.872 0.647534 11.8788 0.662722 11.8788C0.677909 11.8788 0.690335 11.8856 0.690335 11.8939C0.690335 11.9023 0.702761 11.9091 0.717949 11.9091C0.733136 11.9091 0.745562 11.9159 0.745562 11.9242C0.745562 11.9326 0.770414 11.9394 0.800789 11.9394C0.831164 11.9394 0.856016 11.9462 0.856016 11.9545C0.856016 11.9635 0.906645 11.9697 0.980276 11.9697C1.05391 11.9697 1.10454 11.9759 1.10454 11.9848C1.10454 11.9949 3.0789 12 7 12C10.9211 12 12.8955 11.9949 12.8955 11.9848C12.8955 11.9759 12.9461 11.9697 13.0197 11.9697C13.0934 11.9697 13.144 11.9635 13.144 11.9545C13.144 11.9462 13.1626 11.9394 13.1854 11.9394C13.2082 11.9394 13.2268 11.9326 13.2268 11.9242C13.2268 11.9159 13.2455 11.9091 13.2682 11.9091C13.291 11.9091 13.3097 11.9023 13.3097 11.8939C13.3097 11.8856 13.3221 11.8788 13.3373 11.8788C13.3525 11.8788 13.3649 11.872 13.3649 11.8636C13.3649 11.8553 13.3773 11.8485 13.3925 11.8485C13.4077 11.8485 13.4201 11.8417 13.4201 11.8333C13.4201 11.825 13.4325 11.8182 13.4477 11.8182C13.4629 11.8182 13.4753 11.8114 13.4753 11.803C13.4753 11.7947 13.4847 11.7879 13.4962 11.7879C13.5216 11.7879 13.8067 11.478 13.8067 11.4505C13.8067 11.4397 13.8191 11.4211 13.8343 11.4091C13.8495 11.3971 13.8619 11.3751 13.8619 11.3603C13.8619 11.3455 13.8681 11.3333 13.8757 11.3333C13.8833 11.3333 13.8895 11.3197 13.8895 11.303C13.8895 11.2864 13.8958 11.2727 13.9034 11.2727C13.9109 11.2727 13.9172 11.2523 13.9172 11.2273C13.9172 11.2023 13.9234 11.1818 13.931 11.1818C13.9386 11.1818 13.9448 11.1614 13.9448 11.1364C13.9448 11.1114 13.951 11.0909 13.9586 11.0909C13.9662 11.0909 13.9724 11.0568 13.9724 11.0152C13.9724 10.9735 13.9786 10.9394 13.9862 10.9394C13.9954 10.9394 14 9.75758 14 7.42424C14 5.09091 13.9954 3.90909 13.9862 3.90909C13.9786 3.90909 13.9724 3.91591 13.9724 3.92424C13.9724 3.93258 13.9613 3.93939 13.9478 3.93939C13.9343 3.93939 13.9143 3.95303 13.9034 3.9697C13.8924 3.98636 13.8724 4 13.8589 4C13.8454 4 13.8343 4.00682 13.8343 4.01515C13.8343 4.02348 13.8219 4.0303 13.8067 4.0303C13.7915 4.0303 13.7791 4.03712 13.7791 4.04545C13.7791 4.05379 13.7667 4.06061 13.7515 4.06061C13.7363 4.06061 13.7239 4.06742 13.7239 4.07576C13.7239 4.08409 13.7128 4.09091 13.6993 4.09091C13.6858 4.09091 13.6658 4.10455 13.6548 4.12121C13.6439 4.13788 13.6239 4.15152 13.6104 4.15152C13.5969 4.15152 13.5858 4.15833 13.5858 4.16667C13.5858 4.175 13.5734 4.18182 13.5582 4.18182C13.543 4.18182 13.5306 4.18864 13.5306 4.19697C13.5306 4.2053 13.5181 4.21212 13.503 4.21212C13.4878 4.21212 13.4753 4.21894 13.4753 4.22727C13.4753 4.23561 13.4643 4.24242 13.4508 4.24242C13.4373 4.24242 13.4173 4.25606 13.4063 4.27273C13.3954 4.28939 13.3754 4.30303 13.3618 4.30303C13.3483 4.30303 13.3373 4.30985 13.3373 4.31818C13.3373 4.32652 13.3249 4.33333 13.3097 4.33333C13.2945 4.33333 13.2821 4.34015 13.2821 4.34848C13.2821 4.35682 13.2696 4.36364 13.2544 4.36364C13.2393 4.36364 13.2268 4.37045 13.2268 4.37879C13.2268 4.38712 13.2158 4.39394 13.2023 4.39394C13.1887 4.39394 13.1687 4.40758 13.1578 4.42424C13.1468 4.44091 13.1268 4.45455 13.1133 4.45455C13.0998 4.45455 13.0888 4.46136 13.0888 4.4697C13.0888 4.47803 13.0763 4.48485 13.0611 4.48485C13.046 4.48485 13.0335 4.49167 13.0335 4.5C13.0335 4.50833 13.0211 4.51515 13.0059 4.51515C12.9907 4.51515 12.9783 4.52197 12.9783 4.5303C12.9783 4.53864 12.9672 4.54545 12.9537 4.54545C12.9402 4.54545 12.9202 4.55909 12.9093 4.57576C12.8983 4.59242 12.8783 4.60606 12.8648 4.60606C12.8513 4.60606 12.8402 4.61288 12.8402 4.62121C12.8402 4.62955 12.8278 4.63636 12.8126 4.63636C12.7974 4.63636 12.785 4.64318 12.785 4.65152C12.785 4.65985 12.7726 4.66667 12.7574 4.66667C12.7422 4.66667 12.7298 4.67349 12.7298 4.68182C12.7298 4.69015 12.7187 4.69697 12.7052 4.69697C12.6917 4.69697 12.6717 4.71061 12.6607 4.72727C12.6498 4.74394 12.6298 4.75758 12.6163 4.75758C12.6028 4.75758 12.5917 4.76439 12.5917 4.77273C12.5917 4.78106 12.5793 4.78788 12.5641 4.78788C12.5489 4.78788 12.5365 4.7947 12.5365 4.80303C12.5365 4.81136 12.5254 4.81818 12.5119 4.81818C12.4984 4.81818 12.4784 4.83182 12.4675 4.84848C12.4565 4.86515 12.4365 4.87879 12.423 4.87879C12.4095 4.87879 12.3984 4.88561 12.3984 4.89394C12.3984 4.90227 12.386 4.90909 12.3708 4.90909C12.3556 4.90909 12.3432 4.91591 12.3432 4.92424C12.3432 4.93258 12.3308 4.93939 12.3156 4.93939C12.3004 4.93939 12.288 4.94621 12.288 4.95455C12.288 4.96288 12.2769 4.9697 12.2634 4.9697C12.2499 4.9697 12.2299 4.98333 12.2189 5C12.208 5.01667 12.188 5.0303 12.1745 5.0303C12.161 5.0303 12.1499 5.03712 12.1499 5.04545C12.1499 5.05379 12.1375 5.06061 12.1223 5.06061C12.1071 5.06061 12.0947 5.06742 12.0947 5.07576C12.0947 5.08409 12.0822 5.09091 12.0671 5.09091C12.0519 5.09091 12.0394 5.09773 12.0394 5.10606C12.0394 5.11439 12.0284 5.12121 12.0149 5.12121C12.0014 5.12121 11.9814 5.13485 11.9704 5.15152C11.9595 5.16818 11.9395 5.18182 11.9259 5.18182C11.9124 5.18182 11.9014 5.18864 11.9014 5.19697C11.9014 5.2053 11.889 5.21212 11.8738 5.21212C11.8586 5.21212 11.8462 5.21894 11.8462 5.22727C11.8462 5.23561 11.8337 5.24242 11.8185 5.24242C11.8034 5.24242 11.7909 5.24924 11.7909 5.25758C11.7909 5.26591 11.7799 5.27273 11.7664 5.27273C11.7528 5.27273 11.7328 5.28636 11.7219 5.30303C11.7109 5.3197 11.6909 5.33333 11.6774 5.33333C11.6639 5.33333 11.6529 5.34015 11.6529 5.34848C11.6529 5.35682 11.6404 5.36364 11.6252 5.36364C11.6101 5.36364 11.5976 5.37045 11.5976 5.37879C11.5976 5.38712 11.5852 5.39394 11.57 5.39394C11.5548 5.39394 11.5424 5.40076 11.5424 5.40909C11.5424 5.41742 11.5313 5.42424 11.5178 5.42424C11.5043 5.42424 11.4843 5.43788 11.4734 5.45455C11.4624 5.47121 11.4424 5.48485 11.4289 5.48485C11.4154 5.48485 11.4043 5.49167 11.4043 5.5C11.4043 5.50833 11.3919 5.51515 11.3767 5.51515C11.3615 5.51515 11.3491 5.52197 11.3491 5.5303C11.3491 5.53864 11.3367 5.54545 11.3215 5.54545C11.3063 5.54545 11.2939 5.55227 11.2939 5.56061C11.2939 5.56894 11.2828 5.57576 11.2693 5.57576C11.2558 5.57576 11.2358 5.58939 11.2249 5.60606C11.2139 5.62273 11.1939 5.63636 11.1804 5.63636C11.1669 5.63636 11.1558 5.64318 11.1558 5.65152C11.1558 5.65985 11.1434 5.66667 11.1282 5.66667C11.113 5.66667 11.1006 5.67349 11.1006 5.68182C11.1006 5.69015 11.0895 5.69697 11.076 5.69697C11.0625 5.69697 11.0425 5.71061 11.0316 5.72727C11.0206 5.74394 11.0006 5.75758 10.9871 5.75758C10.9736 5.75758 10.9625 5.76439 10.9625 5.77273C10.9625 5.78106 10.9501 5.78788 10.9349 5.78788C10.9197 5.78788 10.9073 5.7947 10.9073 5.80303C10.9073 5.81136 10.8949 5.81818 10.8797 5.81818C10.8645 5.81818 10.8521 5.825 10.8521 5.83333C10.8521 5.84167 10.841 5.84849 10.8275 5.84849C10.814 5.84849 10.794 5.86212 10.783 5.87879C10.7721 5.89545 10.7521 5.90909 10.7386 5.90909C10.7251 5.90909 10.714 5.91591 10.714 5.92424C10.714 5.93258 10.7016 5.93939 10.6864 5.93939C10.6712 5.93939 10.6588 5.94621 10.6588 5.95455C10.6588 5.96288 10.6464 5.9697 10.6312 5.9697C10.616 5.9697 10.6035 5.97652 10.6035 5.98485C10.6035 5.99318 10.5925 6 10.579 6C10.5655 6 10.5455 6.01364 10.5345 6.0303C10.5236 6.04697 10.5036 6.06061 10.49 6.06061C10.4765 6.06061 10.4655 6.06742 10.4655 6.07576C10.4655 6.08409 10.4531 6.09091 10.4379 6.09091C10.4227 6.09091 10.4103 6.09773 10.4103 6.10606C10.4103 6.11439 10.3978 6.12121 10.3826 6.12121C10.3675 6.12121 10.355 6.12803 10.355 6.13636C10.355 6.1447 10.344 6.15152 10.3305 6.15152C10.317 6.15152 10.2969 6.16515 10.286 6.18182C10.275 6.19848 10.255 6.21212 10.2415 6.21212C10.228 6.21212 10.217 6.21894 10.217 6.22727C10.217 6.23561 10.2045 6.24242 10.1893 6.24242C10.1742 6.24242 10.1617 6.24924 10.1617 6.25758C10.1617 6.26591 10.1493 6.27273 10.1341 6.27273C10.1189 6.27273 10.1065 6.27955 10.1065 6.28788C10.1065 6.29621 10.0955 6.30303 10.0819 6.30303C10.0684 6.30303 10.0484 6.31667 10.0375 6.33333C10.0265 6.35 10.0065 6.36364 9.993 6.36364C9.9795 6.36364 9.96844 6.37045 9.96844 6.37879C9.96844 6.38712 9.95602 6.39394 9.94083 6.39394C9.92564 6.39394 9.91321 6.40076 9.91321 6.40909C9.91321 6.41742 9.90216 6.42424 9.88865 6.42424C9.87514 6.42424 9.85513 6.43788 9.84418 6.45455C9.83323 6.47121 9.81323 6.48485 9.79971 6.48485C9.78621 6.48485 9.77515 6.49167 9.77515 6.5C9.77515 6.50833 9.76272 6.51515 9.74753 6.51515C9.73235 6.51515 9.71992 6.52197 9.71992 6.5303C9.71992 6.53864 9.70749 6.54545 9.69231 6.54545C9.67712 6.54545 9.66469 6.55227 9.66469 6.56061C9.66469 6.56894 9.65364 6.57576 9.64013 6.57576C9.62662 6.57576 9.60661 6.58939 9.59566 6.60606C9.58471 6.62273 9.56471 6.63636 9.55119 6.63636C9.53769 6.63636 9.52663 6.64318 9.52663 6.65152C9.52663 6.65985 9.5142 6.66667 9.49901 6.66667C9.48383 6.66667 9.4714 6.67348 9.4714 6.68182C9.4714 6.69015 9.45897 6.69697 9.44379 6.69697C9.4286 6.69697 9.41617 6.70379 9.41617 6.71212C9.41617 6.72046 9.40511 6.72727 9.39161 6.72727C9.37809 6.72727 9.35809 6.74091 9.34714 6.75758C9.33619 6.77424 9.31618 6.78788 9.30267 6.78788C9.28917 6.78788 9.27811 6.7947 9.27811 6.80303C9.27811 6.81136 9.26568 6.81818 9.25049 6.81818C9.23531 6.81818 9.22288 6.825 9.22288 6.83333C9.22288 6.84167 9.21045 6.84848 9.19527 6.84848C9.18008 6.84848 9.16765 6.8553 9.16765 6.86364C9.16765 6.87197 9.15659 6.87879 9.14309 6.87879C9.12957 6.87879 9.10957 6.89242 9.09862 6.90909C9.08767 6.92576 9.06766 6.93939 9.05415 6.93939C9.04064 6.93939 9.02959 6.94621 9.02959 6.95455C9.02959 6.96288 9.01716 6.9697 9.00197 6.9697C8.98678 6.9697 8.97436 6.97652 8.97436 6.98485C8.97436 6.99318 8.96193 7 8.94675 7C8.93156 7 8.91913 7.00682 8.91913 7.01515C8.91913 7.02349 8.90807 7.0303 8.89457 7.0303C8.88105 7.0303 8.86105 7.04394 8.8501 7.06061C8.83915 7.07727 8.81914 7.09091 8.80563 7.09091C8.79212 7.09091 8.78106 7.09773 8.78106 7.10606C8.78106 7.11439 8.76864 7.12121 8.75345 7.12121C8.73826 7.12121 8.72584 7.12803 8.72584 7.13636C8.72584 7.1447 8.71341 7.15152 8.69822 7.15152C8.68304 7.15152 8.67061 7.15833 8.67061 7.16667C8.67061 7.175 8.65955 7.18182 8.64605 7.18182C8.63253 7.18182 8.61253 7.19546 8.60158 7.21212C8.59063 7.22879 8.57062 7.24242 8.55711 7.24242C8.5436 7.24242 8.53254 7.24924 8.53254 7.25758C8.53254 7.26591 8.52012 7.27273 8.50493 7.27273C8.48974 7.27273 8.47732 7.27955 8.47732 7.28788C8.47732 7.29621 8.46626 7.30303 8.45276 7.30303C8.43924 7.30303 8.41923 7.31667 8.40828 7.33333C8.39734 7.35 8.37733 7.36364 8.36381 7.36364C8.35031 7.36364 8.33925 7.37045 8.33925 7.37879C8.33925 7.38712 8.32682 7.39394 8.31164 7.39394C8.29645 7.39394 8.28402 7.40076 8.28402 7.40909C8.28402 7.41742 8.2716 7.42424 8.25641 7.42424C8.24122 7.42424 8.2288 7.43106 8.2288 7.43939C8.2288 7.44773 8.21774 7.45455 8.20423 7.45455C8.19072 7.45455 8.17071 7.46818 8.15976 7.48485C8.14881 7.50152 8.12881 7.51515 8.11529 7.51515C8.10179 7.51515 8.09073 7.52197 8.09073 7.5303C8.09073 7.53864 8.0783 7.54545 8.06312 7.54545C8.04793 7.54545 8.0355 7.55227 8.0355 7.56061C8.0355 7.56894 8.02308 7.57576 8.00789 7.57576C7.9927 7.57576 7.98028 7.58258 7.98028 7.59091C7.98028 7.59924 7.96922 7.60606 7.95571 7.60606C7.9422 7.60606 7.92219 7.6197 7.91124 7.63636C7.90029 7.65303 7.88029 7.66667 7.86677 7.66667C7.85327 7.66667 7.84221 7.67349 7.84221 7.68182C7.84221 7.69015 7.82978 7.69697 7.8146 7.69697C7.79941 7.69697 7.78698 7.70379 7.78698 7.71212C7.78698 7.72046 7.77456 7.72727 7.75937 7.72727C7.74418 7.72727 7.73176 7.73409 7.73176 7.74242C7.73176 7.75076 7.7207 7.75758 7.70719 7.75758C7.69368 7.75758 7.67367 7.77121 7.66272 7.78788C7.65177 7.80455 7.63177 7.81818 7.61825 7.81818C7.60475 7.81818 7.59369 7.825 7.59369 7.83333C7.59369 7.84167 7.58126 7.84848 7.56607 7.84848C7.55089 7.84848 7.53846 7.8553 7.53846 7.86364C7.53846 7.87197 7.52604 7.87879 7.51085 7.87879C7.49566 7.87879 7.48323 7.88561 7.48323 7.89394C7.48323 7.90227 7.47218 7.90909 7.45867 7.90909C7.44516 7.90909 7.42515 7.92273 7.4142 7.93939C7.40325 7.95606 7.38325 7.9697 7.36973 7.9697C7.35623 7.9697 7.34517 7.97652 7.34517 7.98485C7.34517 7.99318 7.33274 8 7.31755 8C7.30237 8 7.28994 8.00682 7.28994 8.01515C7.28994 8.02349 7.27751 8.0303 7.26233 8.0303C7.24714 8.0303 7.23471 8.03712 7.23471 8.04545C7.23471 8.05379 7.22229 8.06061 7.2071 8.06061C7.19191 8.06061 7.17949 8.06742 7.17949 8.07576C7.17949 8.08409 7.16706 8.09091 7.15187 8.09091C7.13669 8.09091 7.12426 8.09773 7.12426 8.10606C7.12426 8.11505 7.07363 8.12121 7 8.12121C6.92637 8.12121 6.87574 8.11505 6.87574 8.10606C6.87574 8.09773 6.86331 8.09091 6.84813 8.09091C6.83294 8.09091 6.82051 8.08409 6.82051 8.07576C6.82051 8.06742 6.80809 8.06061 6.7929 8.06061C6.77771 8.06061 6.76529 8.05379 6.76529 8.04545C6.76529 8.03712 6.75286 8.0303 6.73767 8.0303C6.72249 8.0303 6.71006 8.02349 6.71006 8.01515C6.71006 8.00682 6.69763 8 6.68245 8C6.66726 8 6.65483 7.99318 6.65483 7.98485C6.65483 7.97652 6.64377 7.9697 6.63027 7.9697C6.61675 7.9697 6.59675 7.95606 6.5858 7.93939C6.57485 7.92273 6.55484 7.90909 6.54133 7.90909C6.52782 7.90909 6.51677 7.90227 6.51677 7.89394C6.51677 7.88561 6.50434 7.87879 6.48915 7.87879C6.47396 7.87879 6.46154 7.87197 6.46154 7.86364C6.46154 7.8553 6.44911 7.84848 6.43392 7.84848C6.41874 7.84848 6.40631 7.84167 6.40631 7.83333C6.40631 7.825 6.39525 7.81818 6.38175 7.81818C6.36823 7.81818 6.34823 7.80455 6.33728 7.78788C6.32633 7.77121 6.30632 7.75758 6.29281 7.75758C6.2793 7.75758 6.26824 7.75076 6.26824 7.74242C6.26824 7.73409 6.25582 7.72727 6.24063 7.72727C6.22544 7.72727 6.21302 7.72046 6.21302 7.71212C6.21302 7.70379 6.20059 7.69697 6.1854 7.69697C6.17022 7.69697 6.15779 7.69015 6.15779 7.68182C6.15779 7.67349 6.14673 7.66667 6.13323 7.66667C6.11971 7.66667 6.09971 7.65303 6.08876 7.63636C6.07781 7.6197 6.0578 7.60606 6.04429 7.60606C6.03078 7.60606 6.01972 7.59924 6.01972 7.59091C6.01972 7.58258 6.0073 7.57576 5.99211 7.57576C5.97692 7.57576 5.9645 7.56894 5.9645 7.56061C5.9645 7.55227 5.95207 7.54545 5.93688 7.54545C5.9217 7.54545 5.90927 7.53864 5.90927 7.5303C5.90927 7.52197 5.89821 7.51515 5.88471 7.51515C5.87119 7.51515 5.85119 7.50152 5.84024 7.48485C5.82929 7.46818 5.80928 7.45455 5.79576 7.45455C5.78226 7.45455 5.7712 7.44773 5.7712 7.43939C5.7712 7.43106 5.75878 7.42424 5.74359 7.42424C5.7284 7.42424 5.71598 7.41742 5.71598 7.40909C5.71598 7.40076 5.70355 7.39394 5.68836 7.39394C5.67318 7.39394 5.66075 7.38712 5.66075 7.37879C5.66075 7.37045 5.64969 7.36364 5.63619 7.36364C5.62267 7.36364 5.60266 7.35 5.59172 7.33333C5.58077 7.31667 5.56076 7.30303 5.54724 7.30303C5.53374 7.30303 5.52268 7.29621 5.52268 7.28788C5.52268 7.27955 5.51026 7.27273 5.49507 7.27273C5.47988 7.27273 5.46746 7.26591 5.46746 7.25758C5.46746 7.24924 5.4564 7.24242 5.44289 7.24242C5.42938 7.24242 5.40937 7.22879 5.39842 7.21212C5.38747 7.19546 5.36747 7.18182 5.35395 7.18182C5.34045 7.18182 5.32939 7.175 5.32939 7.16667C5.32939 7.15833 5.31696 7.15152 5.30177 7.15152C5.28659 7.15152 5.27416 7.1447 5.27416 7.13636C5.27416 7.12803 5.26174 7.12121 5.24655 7.12121C5.23136 7.12121 5.21894 7.11439 5.21894 7.10606C5.21894 7.09773 5.20788 7.09091 5.19437 7.09091C5.18086 7.09091 5.16085 7.07727 5.1499 7.06061C5.13895 7.04394 5.11895 7.0303 5.10543 7.0303C5.09193 7.0303 5.08087 7.02349 5.08087 7.01515C5.08087 7.00682 5.06844 7 5.05325 7C5.03807 7 5.02564 6.99318 5.02564 6.98485C5.02564 6.97652 5.01322 6.9697 4.99803 6.9697C4.98284 6.9697 4.97041 6.96288 4.97041 6.95455C4.97041 6.94621 4.95936 6.93939 4.94585 6.93939C4.93234 6.93939 4.91233 6.92576 4.90138 6.90909C4.89043 6.89242 4.87043 6.87879 4.85691 6.87879C4.84341 6.87879 4.83235 6.87197 4.83235 6.86364C4.83235 6.8553 4.81992 6.84848 4.80473 6.84848C4.78955 6.84848 4.77712 6.84167 4.77712 6.83333C4.77712 6.825 4.76469 6.81818 4.74951 6.81818C4.73432 6.81818 4.72189 6.81136 4.72189 6.80303C4.72189 6.7947 4.71083 6.78788 4.69733 6.78788C4.68381 6.78788 4.66381 6.77424 4.65286 6.75758C4.64191 6.74091 4.6219 6.72727 4.60839 6.72727C4.59489 6.72727 4.58383 6.72046 4.58383 6.71212C4.58383 6.70379 4.5714 6.69697 4.55621 6.69697C4.54103 6.69697 4.5286 6.69015 4.5286 6.68182C4.5286 6.67348 4.51617 6.66667 4.50099 6.66667C4.4858 6.66667 4.47337 6.65985 4.47337 6.65152C4.47337 6.64318 4.46231 6.63636 4.44881 6.63636C4.43529 6.63636 4.41529 6.62273 4.40434 6.60606C4.39339 6.58939 4.37338 6.57576 4.35987 6.57576C4.34636 6.57576 4.33531 6.56894 4.33531 6.56061C4.33531 6.55227 4.32288 6.54545 4.30769 6.54545C4.2925 6.54545 4.28008 6.53864 4.28008 6.5303C4.28008 6.52197 4.26765 6.51515 4.25247 6.51515C4.23728 6.51515 4.22485 6.50833 4.22485 6.5C4.22485 6.49167 4.21379 6.48485 4.20029 6.48485C4.18677 6.48485 4.16677 6.47121 4.15582 6.45455C4.14487 6.43788 4.12486 6.42424 4.11135 6.42424C4.09784 6.42424 4.08678 6.41742 4.08678 6.40909C4.08678 6.40076 4.07436 6.39394 4.05917 6.39394C4.04398 6.39394 4.03156 6.38712 4.03156 6.37879C4.03156 6.37045 4.0205 6.36364 4.007 6.36364C3.99348 6.36364 3.97347 6.35 3.96252 6.33333C3.95158 6.31667 3.93157 6.30303 3.91805 6.30303C3.90455 6.30303 3.89349 6.29621 3.89349 6.28788C3.89349 6.27955 3.88107 6.27273 3.86588 6.27273C3.85069 6.27273 3.83826 6.26591 3.83826 6.25758C3.83826 6.24924 3.82584 6.24242 3.81065 6.24242C3.79546 6.24242 3.78304 6.23561 3.78304 6.22727C3.78304 6.21894 3.77198 6.21212 3.75848 6.21212C3.74496 6.21212 3.72495 6.19848 3.714 6.18182C3.70306 6.16515 3.68305 6.15152 3.66953 6.15152C3.65603 6.15152 3.64497 6.1447 3.64497 6.13636C3.64497 6.12803 3.63254 6.12121 3.61736 6.12121C3.60217 6.12121 3.58974 6.11439 3.58974 6.10606C3.58974 6.09773 3.57732 6.09091 3.56213 6.09091C3.54694 6.09091 3.53452 6.08409 3.53452 6.07576C3.53452 6.06742 3.52346 6.06061 3.50995 6.06061C3.49644 6.06061 3.47643 6.04697 3.46548 6.0303C3.45453 6.01364 3.43453 6 3.42101 6C3.40751 6 3.39645 5.99318 3.39645 5.98485C3.39645 5.97652 3.38402 5.9697 3.36884 5.9697C3.35365 5.9697 3.34122 5.96288 3.34122 5.95455C3.34122 5.94621 3.3288 5.93939 3.31361 5.93939C3.29842 5.93939 3.286 5.93258 3.286 5.92424C3.286 5.91591 3.27494 5.90909 3.26143 5.90909C3.24792 5.90909 3.22791 5.89545 3.21696 5.87879C3.20601 5.86212 3.18601 5.84849 3.17249 5.84849C3.15899 5.84849 3.14793 5.84167 3.14793 5.83333C3.14793 5.825 3.1355 5.81818 3.12032 5.81818C3.10513 5.81818 3.0927 5.81136 3.0927 5.80303C3.0927 5.7947 3.08028 5.78788 3.06509 5.78788C3.0499 5.78788 3.03748 5.78106 3.03748 5.77273C3.03748 5.76439 3.02642 5.75758 3.01291 5.75758C2.9994 5.75758 2.97939 5.74394 2.96844 5.72727C2.95749 5.71061 2.93749 5.69697 2.92397 5.69697C2.91047 5.69697 2.89941 5.69015 2.89941 5.68182C2.89941 5.67349 2.88698 5.66667 2.87179 5.66667C2.85661 5.66667 2.84418 5.65985 2.84418 5.65152C2.84418 5.64318 2.83176 5.63636 2.81657 5.63636C2.80138 5.63636 2.78895 5.62955 2.78895 5.62121C2.78895 5.61288 2.7779 5.60606 2.76439 5.60606C2.75088 5.60606 2.73087 5.59242 2.71992 5.57576C2.70897 5.55909 2.68897 5.54545 2.67545 5.54545C2.66195 5.54545 2.65089 5.53864 2.65089 5.5303C2.65089 5.52197 2.63846 5.51515 2.62327 5.51515C2.60809 5.51515 2.59566 5.50833 2.59566 5.5C2.59566 5.49167 2.5846 5.48485 2.5711 5.48485C2.55758 5.48485 2.53758 5.47121 2.52663 5.45455C2.51568 5.43788 2.49567 5.42424 2.48216 5.42424C2.46865 5.42424 2.45759 5.41742 2.45759 5.40909C2.45759 5.40076 2.44517 5.39394 2.42998 5.39394C2.41479 5.39394 2.40237 5.38712 2.40237 5.37879C2.40237 5.37045 2.38994 5.36364 2.37475 5.36364C2.35957 5.36364 2.34714 5.35682 2.34714 5.34848C2.34714 5.34015 2.33608 5.33333 2.32258 5.33333C2.30906 5.33333 2.28906 5.3197 2.27811 5.30303C2.26716 5.28636 2.24715 5.27273 2.23364 5.27273C2.22013 5.27273 2.20907 5.26591 2.20907 5.25758C2.20907 5.24924 2.19665 5.24242 2.18146 5.24242C2.16627 5.24242 2.15385 5.23561 2.15385 5.22727C2.15385 5.21894 2.14142 5.21212 2.12623 5.21212C2.11105 5.21212 2.09862 5.2053 2.09862 5.19697C2.09862 5.18864 2.08756 5.18182 2.07406 5.18182C2.06054 5.18182 2.04053 5.16818 2.02959 5.15152C2.01864 5.13485 1.99863 5.12121 1.98511 5.12121C1.97161 5.12121 1.96055 5.11439 1.96055 5.10606C1.96055 5.09773 1.94813 5.09091 1.93294 5.09091C1.91775 5.09091 1.90533 5.08409 1.90533 5.07576C1.90533 5.06742 1.8929 5.06061 1.87771 5.06061C1.86252 5.06061 1.8501 5.05379 1.8501 5.04545C1.8501 5.03712 1.83904 5.0303 1.82554 5.0303C1.81202 5.0303 1.79201 5.01667 1.78106 5C1.77012 4.98333 1.75011 4.9697 1.73659 4.9697C1.72309 4.9697 1.71203 4.96288 1.71203 4.95455C1.71203 4.94621 1.69961 4.93939 1.68442 4.93939C1.66923 4.93939 1.6568 4.93258 1.6568 4.92424C1.6568 4.91591 1.64438 4.90909 1.62919 4.90909C1.614 4.90909 1.60158 4.90227 1.60158 4.89394C1.60158 4.88561 1.59052 4.87879 1.57702 4.87879C1.5635 4.87879 1.54349 4.86515 1.53254 4.84848C1.5216 4.83182 1.50159 4.81818 1.48807 4.81818C1.47457 4.81818 1.46351 4.81136 1.46351 4.80303C1.46351 4.7947 1.45108 4.78788 1.4359 4.78788C1.42071 4.78788 1.40828 4.78106 1.40828 4.77273C1.40828 4.76439 1.39722 4.75758 1.38372 4.75758C1.37021 4.75758 1.3502 4.74394 1.33925 4.72727C1.3283 4.71061 1.3083 4.69697 1.29478 4.69697C1.28128 4.69697 1.27022 4.69015 1.27022 4.68182C1.27022 4.67349 1.25779 4.66667 1.2426 4.66667C1.22742 4.66667 1.21499 4.65985 1.21499 4.65152C1.21499 4.64318 1.20256 4.63636 1.18738 4.63636C1.17219 4.63636 1.15976 4.62955 1.15976 4.62121C1.15976 4.61288 1.1487 4.60606 1.1352 4.60606C1.12168 4.60606 1.10168 4.59242 1.09073 4.57576C1.07978 4.55909 1.05978 4.54545 1.04626 4.54545C1.03276 4.54545 1.0217 4.53864 1.0217 4.5303C1.0217 4.52197 1.00927 4.51515 0.994083 4.51515C0.978895 4.51515 0.966469 4.50833 0.966469 4.5C0.966469 4.49167 0.954043 4.48485 0.938856 4.48485C0.923669 4.48485 0.911243 4.47803 0.911243 4.4697C0.911243 4.46136 0.900183 4.45455 0.88668 4.45455C0.873164 4.45455 0.853158 4.44091 0.842209 4.42424C0.83126 4.40758 0.811254 4.39394 0.797738 4.39394C0.784235 4.39394 0.773175 4.38712 0.773175 4.37879C0.773175 4.37045 0.76075 4.36364 0.745562 4.36364C0.730375 4.36364 0.717949 4.35682 0.717949 4.34848C0.717949 4.34015 0.705523 4.33333 0.690335 4.33333C0.675148 4.33333 0.662722 4.32652 0.662722 4.31818C0.662722 4.30985 0.651663 4.30303 0.63816 4.30303C0.624643 4.30303 0.604637 4.28939 0.593688 4.27273C0.58274 4.25606 0.562734 4.24242 0.549217 4.24242C0.535714 4.24242 0.524655 4.23561 0.524655 4.22727C0.524655 4.21894 0.512229 4.21212 0.497041 4.21212C0.481854 4.21212 0.469428 4.2053 0.469428 4.19697C0.469428 4.18864 0.457002 4.18182 0.441815 4.18182C0.426627 4.18182 0.414201 4.175 0.414201 4.16667C0.414201 4.15833 0.403142 4.15152 0.389639 4.15152C0.376122 4.15152 0.356116 4.13788 0.345168 4.12121C0.334219 4.10455 0.314213 4.09091 0.300696 4.09091C0.287193 4.09091 0.276134 4.08409 0.276134 4.07576C0.276134 4.06742 0.263708 4.06061 0.248521 4.06061C0.233333 4.06061 0.220907 4.05379 0.220907 4.04545C0.220907 4.03712 0.208481 4.0303 0.193294 4.0303C0.178107 4.0303 0.16568 4.02348 0.16568 4.01515C0.16568 4.00682 0.154621 4 0.141118 4C0.127602 4 0.107596 3.98636 0.0966469 3.9697C0.0856982 3.95303 0.0656923 3.93939 0.0521755 3.93939C0.0386726 3.93939 0.0276134 3.93258 0.0276134 3.92424C0.0276134 3.91591 0.0214004 3.90909 0.0138067 3.90909C0.00463905 3.90909 0 5.09091 0 7.42424Z" fill="#CE1F6A"/>
</svg>
