<svg width="14" height="15" viewBox="0 0 14 15" fill="none"
    xmlns="http://www.w3.org/2000/svg">
    <path d="M7.17668 0.51898C7.05065 0.554598 6.92736 0.708024 6.90544 0.850492C6.89723 0.916246 6.89175 3.95465 6.89723 7.60401L6.90544 14.2397L6.96298 14.3137C7.06435 14.4507 7.15476 14.5 7.30271 14.5C7.45066 14.5 7.54107 14.4507 7.64244 14.3137L7.69998 14.2397V7.50264V0.765559L7.64244 0.691586C7.52189 0.52994 7.34929 0.464185 7.17668 0.51898Z" fill="#EC7F3C"/>
    <path d="M2.87832 2.21215C2.57969 2.29982 2.39886 2.40667 2.16598 2.63955C1.82625 2.97654 1.68652 3.31353 1.68652 3.79025C1.68652 4.25327 1.82899 4.60122 2.15228 4.92999C2.47832 5.2615 2.85914 5.42041 3.3249 5.42041C4.22081 5.42041 4.94684 4.68889 4.94684 3.79025C4.94684 3.05325 4.43451 2.38749 3.72491 2.20119C3.50847 2.14639 3.08928 2.14913 2.87832 2.21215Z" fill="#EC7F3C"/>
    <path d="M10.8507 2.21215C10.4754 2.319 10.0754 2.62311 9.89181 2.93818C9.68084 3.29709 9.60413 3.79025 9.69728 4.16012C9.81783 4.64506 10.1384 5.0478 10.5658 5.25054C10.837 5.37931 11.0096 5.42041 11.2973 5.42041C11.7521 5.42041 12.122 5.2615 12.4535 4.92999C12.7768 4.60396 12.9192 4.25601 12.9192 3.79025C12.9192 3.31079 12.7823 2.98202 12.4398 2.63955C12.2042 2.40119 11.9959 2.2779 11.7001 2.20119C11.4836 2.14639 11.0617 2.14913 10.8507 2.21215Z" fill="#EC7F3C"/>
    <path d="M1.53829 5.64512C1.46705 5.75471 1.38486 5.96019 1.32459 6.17937C1.27527 6.37116 1.26705 6.49992 1.24787 7.48898L1.22869 8.58489L1.11362 9.35202C0.982116 10.2205 0.973896 10.3411 1.04239 10.4561C1.13554 10.6123 1.22048 10.637 1.67254 10.6534L2.0835 10.6671L2.0972 11.6397C2.10816 12.511 2.11638 12.6233 2.16021 12.6891C2.26159 12.8452 2.28076 12.848 3.34105 12.8397L4.31093 12.8315L4.3849 12.763C4.53559 12.6233 4.53559 12.6206 4.53559 11.5986V10.6534H4.94108C5.29451 10.6534 5.35478 10.6479 5.43423 10.5986C5.5493 10.5274 5.6315 10.3904 5.6315 10.2671C5.6315 10.215 5.57122 9.74107 5.49451 9.21503L5.35752 8.26159V7.34651C5.35752 6.31088 5.34382 6.19581 5.16574 5.8095C5.1082 5.68621 5.05341 5.58484 5.04519 5.58484C5.03697 5.58484 4.95203 5.64786 4.85888 5.72457C4.64244 5.89718 4.20682 6.11636 3.91914 6.19307C3.61503 6.27252 3.0479 6.278 2.75474 6.20403C2.35748 6.10266 1.87528 5.85334 1.68624 5.65334C1.60678 5.5684 1.5876 5.5684 1.53829 5.64512Z" fill="#EC7F3C"/>
    <path d="M9.45353 5.77655C9.25627 6.16834 9.24805 6.24505 9.24805 7.84781V9.27523L9.31106 9.36838C9.40695 9.51359 9.52202 9.55743 9.81792 9.55743H10.07V11.0506C10.07 12.6698 10.0645 12.6177 10.2207 12.763L10.2946 12.8314L11.2563 12.8397C11.9522 12.8451 12.2399 12.8369 12.2974 12.815C12.3385 12.7958 12.4043 12.7383 12.4426 12.6835L12.5084 12.5849V11.0753V9.56291L12.7933 9.55195C13.1029 9.54373 13.1659 9.51633 13.2865 9.35468C13.344 9.28071 13.344 9.25331 13.3413 7.83685C13.3413 6.43957 13.3385 6.38478 13.281 6.1793C13.2125 5.93272 13.0947 5.656 13.0371 5.60943C13.007 5.58203 12.9823 5.59299 12.9111 5.65874C12.67 5.88614 12.2508 6.10258 11.8508 6.20395C11.5823 6.27245 11.0179 6.27245 10.744 6.20669C10.3659 6.11354 10.0124 5.9382 9.72477 5.70532C9.64531 5.63956 9.57134 5.58477 9.56312 5.58477C9.55764 5.58477 9.50558 5.67244 9.45353 5.77655Z" fill="#EC7F3C"/>
</svg>
