<svg width="14" height="15" viewBox="0 0 14 15" fill="none" xmlns="http://www.w3.org/2000/svg">
<path d="M1.39726 1.40781C0.769863 1.49682 0.243836 1.97629 0.0493151 2.63665C0.00273973 2.8003 0 3.0099 0 6.90025C0 10.7906 0.00273973 11.0002 0.0493151 11.1639C0.219178 11.7438 0.624658 12.1687 1.17808 12.3468C1.33425 12.3956 1.58356 12.3984 7 12.3984C12.4164 12.3984 12.6658 12.3956 12.8219 12.3468C13.3781 12.1659 13.7781 11.7467 13.9507 11.1639C13.9973 11.0002 14 10.7906 14 6.90025C14 3.0099 13.9973 2.8003 13.9507 2.63665C13.7808 2.05669 13.3973 1.65186 12.8356 1.45375C12.6904 1.40494 12.4521 1.40207 7.08219 1.3992C4 1.39633 1.44384 1.40207 1.39726 1.40781ZM4.69589 3.87123C5.16986 3.98895 5.56986 4.35645 5.74247 4.83305C5.99726 5.5336 5.69863 6.3691 5.06575 6.71937C4.32603 7.13281 3.4137 6.82273 3.05479 6.03605C2.77808 5.4245 2.88493 4.7584 3.33973 4.2818C3.69315 3.91142 4.21644 3.75351 4.69589 3.87123ZM12.0411 4.20428C12.0986 4.23873 12.1699 4.31338 12.2027 4.37367C12.3205 4.59188 12.2466 4.88186 12.0411 5.00245C11.9397 5.06274 11.9178 5.06274 10.2192 5.06274C8.69041 5.06274 8.49041 5.057 8.40822 5.0168C8.08493 4.85602 8.08219 4.35645 8.40274 4.19279C8.48219 4.14973 8.68219 4.14398 10.2164 4.14398C11.9205 4.14398 11.9397 4.14398 12.0411 4.20428ZM12.0603 6.65908C12.2082 6.77393 12.2658 6.89738 12.2548 7.07539C12.2411 7.25627 12.1671 7.39121 12.0329 7.46874C11.9534 7.5118 11.8 7.51754 10.2795 7.52616C9.1726 7.5319 8.57808 7.52329 8.50685 7.50319C8.10137 7.38834 8.0411 6.83709 8.41096 6.64185C8.51781 6.58443 8.56712 6.58443 10.2521 6.59017C11.9589 6.59879 11.9836 6.59879 12.0603 6.65908ZM5.77808 7.56061C6.08219 7.641 6.29863 7.7702 6.52055 8.00563C6.86849 8.36739 7 8.72628 7 9.30338C7 9.68236 6.9726 9.76275 6.8 9.8977C6.72329 9.95799 6.71233 9.95799 4.36986 9.95799C2.0274 9.95799 2.01644 9.95799 1.93973 9.8977C1.76712 9.76275 1.73973 9.68236 1.73973 9.30338C1.73973 8.90716 1.78082 8.70906 1.92329 8.41046C2.04384 8.1578 2.33973 7.84485 2.58082 7.70991C2.93151 7.51467 3.01096 7.50606 4.3589 7.50606C5.47397 7.50319 5.58356 7.50893 5.77808 7.56061ZM12.0329 9.08804C12.1671 9.16556 12.2411 9.30051 12.2548 9.48139C12.2658 9.65939 12.2082 9.78285 12.0603 9.8977C11.9836 9.95799 11.9589 9.95799 10.2932 9.9666C9.36438 9.97235 8.56164 9.9666 8.51233 9.95799C8.38356 9.93215 8.2137 9.76275 8.17534 9.6192C8.12055 9.40387 8.23014 9.17705 8.43562 9.07943C8.54247 9.02775 8.63836 9.02488 10.2466 9.03349C11.8 9.03923 11.9534 9.04211 12.0329 9.08804Z" fill="#CE1F6A"/>
</svg>
