<svg width="14" height="15" viewBox="0 0 14 15" fill="none" xmlns="http://www.w3.org/2000/svg">
<path d="M1.97595 0.527582C1.72896 0.578782 1.59341 0.681182 1.02412 1.24438C0.509049 1.75638 0.451819 1.82565 0.343382 2.04853C0.096388 2.55752 0 3.02434 0 3.705C0.00301212 4.22302 0.048194 4.60552 0.177715 5.13559C0.969904 8.37023 4.1236 12.0145 7.55441 13.6619C8.76227 14.2402 9.79543 14.5082 10.8226 14.5112C11.4882 14.5112 11.9611 14.4118 12.4642 14.1679C12.6871 14.0595 12.7563 14.0022 13.2684 13.4872C13.5756 13.174 13.8558 12.8668 13.8889 12.8005C14.0395 12.4994 14.0365 12.159 13.8829 11.8609C13.8287 11.7555 13.4401 11.3489 12.4883 10.4032C11.0033 8.9244 11.0696 8.9756 10.6268 8.9756C10.2352 8.9756 10.1328 9.03884 9.48518 9.68035C8.87974 10.2767 8.86769 10.2857 8.48515 10.2857C7.75321 10.2857 6.68691 9.73155 5.80135 8.89127C4.90073 8.03592 4.22601 6.81013 4.22601 6.02707C4.22601 5.64458 4.23505 5.63253 4.83145 5.02717C5.47303 4.37662 5.53628 4.27422 5.53628 3.88571C5.53628 3.44298 5.58749 3.50923 4.09649 2.01238C2.94586 0.858876 2.74706 0.672147 2.60247 0.605888C2.4097 0.521559 2.15969 0.488429 1.97595 0.527582Z" fill="#CE1F6A"/>
</svg>
