<svg width="14" height="14" viewBox="0 0 14 14" fill="none" xmlns="http://www.w3.org/2000/svg">
<path fill-rule="evenodd" clip-rule="evenodd" d="M7.01754 0.0165485C7.01754 0.0261962 6.96394 0.0330969 6.88889 0.0330969C6.81383 0.0330969 6.76023 0.0399976 6.76023 0.0496454C6.76023 0.058747 6.72405 0.0661939 6.67982 0.0661939C6.6356 0.0661939 6.59942 0.0736407 6.59942 0.0827423C6.59942 0.091844 6.56323 0.0992908 6.51901 0.0992908C6.47478 0.0992908 6.4386 0.106738 6.4386 0.115839C6.4386 0.124941 6.40965 0.132388 6.37427 0.132388C6.33889 0.132388 6.30994 0.139835 6.30994 0.148936C6.30994 0.158038 6.28099 0.165485 6.24561 0.165485C6.21023 0.165485 6.18129 0.172931 6.18129 0.182033C6.18129 0.191135 6.15958 0.198582 6.13304 0.198582C6.10651 0.198582 6.0848 0.206028 6.0848 0.21513C6.0848 0.224232 6.06308 0.231679 6.03655 0.231679C6.01001 0.231679 5.9883 0.239125 5.9883 0.248227C5.9883 0.257329 5.96659 0.264775 5.94006 0.264775C5.91352 0.264775 5.89181 0.272222 5.89181 0.281324C5.89181 0.290426 5.87734 0.297872 5.85965 0.297872C5.84196 0.297872 5.82749 0.305319 5.82749 0.314421C5.82749 0.323522 5.80577 0.330969 5.77924 0.330969C5.7527 0.330969 5.73099 0.338416 5.73099 0.347518C5.73099 0.356619 5.70928 0.364066 5.68275 0.364066C5.65621 0.364066 5.6345 0.371513 5.6345 0.380615C5.6345 0.389716 5.62003 0.397163 5.60234 0.397163C5.58465 0.397163 5.57018 0.40461 5.57018 0.413712C5.57018 0.422813 5.5557 0.43026 5.53801 0.43026C5.52032 0.43026 5.50585 0.437707 5.50585 0.446809C5.50585 0.45591 5.49137 0.463357 5.47368 0.463357C5.45599 0.463357 5.44152 0.470804 5.44152 0.479905C5.44152 0.489007 5.42705 0.496454 5.40936 0.496454C5.39167 0.496454 5.37719 0.503901 5.37719 0.513002C5.37719 0.522104 5.36272 0.529551 5.34503 0.529551C5.32734 0.529551 5.31287 0.536998 5.31287 0.546099C5.31287 0.555201 5.29839 0.562648 5.2807 0.562648C5.26301 0.562648 5.24854 0.570095 5.24854 0.579196C5.24854 0.588298 5.23406 0.595745 5.21637 0.595745C5.19868 0.595745 5.18421 0.603191 5.18421 0.612293C5.18421 0.621395 5.17133 0.628842 5.1556 0.628842C5.13986 0.628842 5.11655 0.643735 5.1038 0.661939C5.09105 0.680142 5.06934 0.695036 5.05556 0.695036C5.04177 0.695036 5.02006 0.709929 5.00731 0.728132C4.99456 0.746336 4.97125 0.761229 4.95551 0.761229C4.93978 0.761229 4.9269 0.768676 4.9269 0.777778C4.9269 0.786879 4.91402 0.794326 4.89829 0.794326C4.88255 0.794326 4.85924 0.80922 4.84649 0.827423C4.83374 0.845627 4.81333 0.86052 4.80114 0.86052C4.78897 0.86052 4.7587 0.882861 4.73392 0.910166C4.70914 0.93747 4.68019 0.959811 4.66959 0.959811C4.65899 0.959811 4.63005 0.982151 4.60526 1.00946C4.58048 1.03676 4.55184 1.0591 4.54163 1.0591C4.53143 1.0591 4.48045 1.10378 4.42836 1.15839C4.37627 1.213 4.32594 1.25768 4.31651 1.25768C4.29413 1.25768 3.92982 1.63256 3.92982 1.65559C3.92982 1.66529 3.8864 1.71709 3.83333 1.77069C3.78026 1.82429 3.73684 1.87674 3.73684 1.88724C3.73684 1.89774 3.71513 1.92722 3.6886 1.95272C3.66206 1.97822 3.64035 2.00801 3.64035 2.01891C3.64035 2.02982 3.61864 2.05961 3.59211 2.08511C3.56557 2.11061 3.54386 2.14175 3.54386 2.15428C3.54386 2.16682 3.52939 2.18782 3.5117 2.20095C3.49401 2.21407 3.47953 2.23641 3.47953 2.25059C3.47953 2.26477 3.46506 2.28711 3.44737 2.30024C3.42968 2.31336 3.4152 2.33734 3.4152 2.35354C3.4152 2.36972 3.40797 2.38298 3.39912 2.38298C3.39028 2.38298 3.38304 2.39623 3.38304 2.41242C3.38304 2.42862 3.36857 2.4526 3.35088 2.46572C3.33319 2.47884 3.31871 2.50282 3.31871 2.51902C3.31871 2.53521 3.31148 2.54846 3.30263 2.54846C3.29379 2.54846 3.28655 2.56172 3.28655 2.5779C3.28655 2.5941 3.27208 2.61808 3.25439 2.63121C3.2367 2.64433 3.22222 2.66831 3.22222 2.68451C3.22222 2.70069 3.21499 2.71395 3.20614 2.71395C3.1973 2.71395 3.19006 2.73629 3.19006 2.76359C3.19006 2.7909 3.18282 2.81324 3.17398 2.81324C3.16513 2.81324 3.15789 2.82813 3.15789 2.84634C3.15789 2.86454 3.15066 2.87943 3.14181 2.87943C3.13297 2.87943 3.12573 2.89433 3.12573 2.91253C3.12573 2.93073 3.11849 2.94563 3.10965 2.94563C3.1008 2.94563 3.09357 2.96052 3.09357 2.97872C3.09357 2.99693 3.08633 3.01182 3.07749 3.01182C3.06864 3.01182 3.0614 3.02671 3.0614 3.04492C3.0614 3.06312 3.05417 3.07801 3.04532 3.07801C3.03648 3.07801 3.02924 3.09291 3.02924 3.11111C3.02924 3.12931 3.022 3.14421 3.01316 3.14421C3.00431 3.14421 2.99708 3.16655 2.99708 3.19385C2.99708 3.22116 2.98984 3.2435 2.98099 3.2435C2.97215 3.2435 2.96491 3.26584 2.96491 3.29314C2.96491 3.32045 2.95768 3.34279 2.94883 3.34279C2.93999 3.34279 2.93275 3.36513 2.93275 3.39244C2.93275 3.41974 2.92551 3.44208 2.91667 3.44208C2.90782 3.44208 2.90058 3.46442 2.90058 3.49173C2.90058 3.51903 2.89335 3.54137 2.8845 3.54137C2.87566 3.54137 2.86842 3.55626 2.86842 3.57447C2.86842 3.59267 2.86118 3.60757 2.85234 3.60757C2.84349 3.60757 2.83626 3.63735 2.83626 3.67376C2.83626 3.71017 2.82902 3.73995 2.82018 3.73995C2.81133 3.73995 2.80409 3.76974 2.80409 3.80615C2.80409 3.84255 2.79686 3.87234 2.78801 3.87234C2.77917 3.87234 2.77193 3.90213 2.77193 3.93853C2.77193 3.97494 2.76469 4.00473 2.75585 4.00473C2.747 4.00473 2.73977 4.04196 2.73977 4.08747C2.73977 4.13298 2.73253 4.17021 2.72368 4.17021C2.71474 4.17021 2.7076 4.21435 2.7076 4.2695C2.7076 4.32466 2.70046 4.36879 2.69152 4.36879C2.68214 4.36879 2.67544 4.42395 2.67544 4.50118C2.67544 4.57841 2.66873 4.63357 2.65936 4.63357C2.649 4.63357 2.64327 4.81009 2.64327 5.13002C2.64327 5.44996 2.649 5.62648 2.65936 5.62648C2.66873 5.62648 2.67544 5.68163 2.67544 5.75887C2.67544 5.8361 2.68214 5.89125 2.69152 5.89125C2.70046 5.89125 2.7076 5.93539 2.7076 5.99054C2.7076 6.06996 2.70252 6.08983 2.68223 6.08983C2.66825 6.08983 2.62903 6.11962 2.59503 6.15603C2.56103 6.19244 2.52519 6.22222 2.51534 6.22222C2.49191 6.22222 2.38596 6.33153 2.38596 6.35569C2.38596 6.366 2.36425 6.3953 2.33772 6.4208C2.31118 6.44631 2.28947 6.47745 2.28947 6.48998C2.28947 6.50252 2.275 6.52352 2.25731 6.53664C2.23962 6.54977 2.22515 6.57375 2.22515 6.58995C2.22515 6.60613 2.21791 6.61939 2.20906 6.61939C2.20022 6.61939 2.19298 6.63428 2.19298 6.65248C2.19298 6.67069 2.18575 6.68558 2.1769 6.68558C2.16806 6.68558 2.16082 6.70047 2.16082 6.71868C2.16082 6.73688 2.15358 6.75177 2.14474 6.75177C2.13589 6.75177 2.12865 6.76667 2.12865 6.78487C2.12865 6.80307 2.12142 6.81797 2.11257 6.81797C2.10373 6.81797 2.09649 6.84031 2.09649 6.86761C2.09649 6.89492 2.08925 6.91726 2.08041 6.91726C2.07156 6.91726 2.06433 6.94705 2.06433 6.98345C2.06433 7.01986 2.05709 7.04965 2.04825 7.04965C2.03906 7.04965 2.03216 7.09929 2.03216 7.16548C2.03216 7.23168 2.02526 7.28132 2.01608 7.28132C2.00544 7.28132 2 8.1639 2 9.89598C2 11.6281 2.00544 12.5106 2.01608 12.5106C2.02546 12.5106 2.03216 12.5658 2.03216 12.643C2.03216 12.7203 2.03887 12.7754 2.04825 12.7754C2.05709 12.7754 2.06433 12.8052 2.06433 12.8416C2.06433 12.878 2.07156 12.9078 2.08041 12.9078C2.08925 12.9078 2.09649 12.9227 2.09649 12.9409C2.09649 12.9591 2.10373 12.974 2.11257 12.974C2.12142 12.974 2.12865 12.9963 2.12865 13.0236C2.12865 13.0509 2.13589 13.0733 2.14474 13.0733C2.15358 13.0733 2.16082 13.0882 2.16082 13.1064C2.16082 13.1246 2.16806 13.1395 2.1769 13.1395C2.18575 13.1395 2.19298 13.1527 2.19298 13.1689C2.19298 13.1851 2.20746 13.2091 2.22515 13.2222C2.24284 13.2353 2.25731 13.2563 2.25731 13.2689C2.25731 13.2814 2.27902 13.3126 2.30556 13.3381C2.33209 13.3636 2.3538 13.3928 2.3538 13.4029C2.3538 13.427 2.55682 13.6359 2.58023 13.6359C2.59012 13.6359 2.61849 13.6583 2.64327 13.6856C2.66806 13.7129 2.69832 13.7352 2.7105 13.7352C2.72269 13.7352 2.7431 13.7501 2.75585 13.7683C2.7686 13.7865 2.7919 13.8014 2.80765 13.8014C2.82338 13.8014 2.83626 13.8089 2.83626 13.818C2.83626 13.8271 2.85073 13.8345 2.86842 13.8345C2.88611 13.8345 2.90058 13.842 2.90058 13.8511C2.90058 13.8602 2.91506 13.8676 2.93275 13.8676C2.95044 13.8676 2.96491 13.8751 2.96491 13.8842C2.96491 13.8933 2.98662 13.9007 3.01316 13.9007C3.03969 13.9007 3.0614 13.9082 3.0614 13.9173C3.0614 13.9264 3.09035 13.9338 3.12573 13.9338C3.16111 13.9338 3.19006 13.9413 3.19006 13.9504C3.19006 13.96 3.24366 13.9669 3.31871 13.9669C3.39377 13.9669 3.44737 13.9738 3.44737 13.9835C3.44737 13.9944 4.80897 14 7.5 14C10.191 14 11.5526 13.9944 11.5526 13.9835C11.5526 13.9738 11.6062 13.9669 11.6813 13.9669C11.7563 13.9669 11.8099 13.96 11.8099 13.9504C11.8099 13.9413 11.8389 13.9338 11.8743 13.9338C11.9096 13.9338 11.9386 13.9264 11.9386 13.9173C11.9386 13.9082 11.9603 13.9007 11.9868 13.9007C12.0134 13.9007 12.0351 13.8933 12.0351 13.8842C12.0351 13.8751 12.0496 13.8676 12.0673 13.8676C12.0849 13.8676 12.0994 13.8602 12.0994 13.8511C12.0994 13.842 12.1139 13.8345 12.1316 13.8345C12.1493 13.8345 12.1637 13.8271 12.1637 13.818C12.1637 13.8089 12.1782 13.8014 12.1959 13.8014C12.2136 13.8014 12.2281 13.794 12.2281 13.7849C12.2281 13.7758 12.2396 13.7683 12.2538 13.7683C12.2679 13.7683 12.2998 13.746 12.3246 13.7187C12.3493 13.6914 12.3777 13.669 12.3875 13.669C12.4109 13.669 12.6784 13.3938 12.6784 13.3698C12.6784 13.3596 12.7001 13.3305 12.7266 13.305C12.7531 13.2795 12.7749 13.2467 12.7749 13.2321C12.7749 13.2176 12.7821 13.2057 12.7909 13.2057C12.7998 13.2057 12.807 13.1908 12.807 13.1726C12.807 13.1544 12.8143 13.1395 12.8231 13.1395C12.8319 13.1395 12.8392 13.1246 12.8392 13.1064C12.8392 13.0882 12.8464 13.0733 12.8553 13.0733C12.8641 13.0733 12.8713 13.0584 12.8713 13.0402C12.8713 13.022 12.8786 13.0071 12.8874 13.0071C12.8963 13.0071 12.9035 12.9848 12.9035 12.9574C12.9035 12.9301 12.9107 12.9078 12.9196 12.9078C12.9284 12.9078 12.9357 12.878 12.9357 12.8416C12.9357 12.8052 12.9429 12.7754 12.9518 12.7754C12.9606 12.7754 12.9678 12.7382 12.9678 12.6927C12.9678 12.6472 12.9751 12.6099 12.9839 12.6099C12.9946 12.6099 13 11.6943 13 9.89598C13 8.09771 12.9946 7.18203 12.9839 7.18203C12.9751 7.18203 12.9678 7.1448 12.9678 7.09929C12.9678 7.05378 12.9606 7.01655 12.9518 7.01655C12.9429 7.01655 12.9357 6.98676 12.9357 6.95036C12.9357 6.91395 12.9284 6.88416 12.9196 6.88416C12.9107 6.88416 12.9035 6.86182 12.9035 6.83452C12.9035 6.80721 12.8963 6.78487 12.8874 6.78487C12.8786 6.78487 12.8713 6.76998 12.8713 6.75177C12.8713 6.73357 12.8641 6.71868 12.8553 6.71868C12.8464 6.71868 12.8392 6.70378 12.8392 6.68558C12.8392 6.66738 12.8319 6.65248 12.8231 6.65248C12.8143 6.65248 12.807 6.63923 12.807 6.62304C12.807 6.60684 12.7925 6.58286 12.7749 6.56974C12.7572 6.55662 12.7427 6.53562 12.7427 6.52307C12.7427 6.51055 12.721 6.4794 12.6944 6.4539C12.6679 6.4284 12.6462 6.39921 12.6462 6.38903C12.6462 6.36317 12.4423 6.15603 12.4169 6.15603C12.4054 6.15603 12.3856 6.14114 12.3728 6.12293C12.3601 6.10473 12.3368 6.08983 12.321 6.08983C12.2974 6.08983 12.2924 6.07539 12.2924 6.00709C12.2924 5.96158 12.2996 5.92435 12.3085 5.92435C12.3177 5.92435 12.3246 5.8747 12.3246 5.80851C12.3246 5.74232 12.3315 5.69267 12.3406 5.69267C12.351 5.69267 12.3567 5.4996 12.3567 5.14657C12.3567 4.79354 12.351 4.60047 12.3406 4.60047C12.3313 4.60047 12.3246 4.54532 12.3246 4.46809C12.3246 4.39085 12.3179 4.3357 12.3085 4.3357C12.2995 4.3357 12.2924 4.29156 12.2924 4.23641C12.2924 4.18125 12.2853 4.13712 12.2763 4.13712C12.2675 4.13712 12.2602 4.10733 12.2602 4.07092C12.2602 4.03452 12.253 4.00473 12.2442 4.00473C12.2353 4.00473 12.2281 3.97494 12.2281 3.93853C12.2281 3.90213 12.2208 3.87234 12.212 3.87234C12.2031 3.87234 12.1959 3.84255 12.1959 3.80615C12.1959 3.76974 12.1887 3.73995 12.1798 3.73995C12.171 3.73995 12.1637 3.71017 12.1637 3.67376C12.1637 3.63735 12.1565 3.60757 12.1477 3.60757C12.1388 3.60757 12.1316 3.58522 12.1316 3.55792C12.1316 3.53061 12.1243 3.50827 12.1155 3.50827C12.1067 3.50827 12.0994 3.48593 12.0994 3.45863C12.0994 3.43132 12.0922 3.40898 12.0833 3.40898C12.0745 3.40898 12.0673 3.38664 12.0673 3.35934C12.0673 3.33203 12.06 3.30969 12.0512 3.30969C12.0423 3.30969 12.0351 3.2948 12.0351 3.2766C12.0351 3.25839 12.0279 3.2435 12.019 3.2435C12.0102 3.2435 12.0029 3.22116 12.0029 3.19385C12.0029 3.16655 11.9957 3.14421 11.9868 3.14421C11.978 3.14421 11.9708 3.12931 11.9708 3.11111C11.9708 3.09291 11.9635 3.07801 11.9547 3.07801C11.9458 3.07801 11.9386 3.06312 11.9386 3.04492C11.9386 3.02671 11.9314 3.01182 11.9225 3.01182C11.9137 3.01182 11.9064 2.98948 11.9064 2.96218C11.9064 2.93487 11.8992 2.91253 11.8904 2.91253C11.8815 2.91253 11.8743 2.89764 11.8743 2.87943C11.8743 2.86123 11.867 2.84634 11.8582 2.84634C11.8493 2.84634 11.8421 2.83144 11.8421 2.81324C11.8421 2.79504 11.8349 2.78014 11.826 2.78014C11.8172 2.78014 11.8099 2.76525 11.8099 2.74705C11.8099 2.72884 11.8027 2.71395 11.7939 2.71395C11.785 2.71395 11.7778 2.69905 11.7778 2.68085C11.7778 2.66265 11.7705 2.64775 11.7617 2.64775C11.7529 2.64775 11.7456 2.6345 11.7456 2.61831C11.7456 2.60211 11.7311 2.57813 11.7135 2.56501C11.6958 2.55189 11.6813 2.52791 11.6813 2.51171C11.6813 2.49553 11.674 2.48227 11.6652 2.48227C11.6564 2.48227 11.6491 2.46901 11.6491 2.45283C11.6491 2.43663 11.6346 2.41265 11.617 2.39953C11.5993 2.3864 11.5848 2.36243 11.5848 2.34622C11.5848 2.33004 11.5776 2.31678 11.5687 2.31678C11.5599 2.31678 11.5526 2.30489 11.5526 2.29032C11.5526 2.27578 11.5309 2.243 11.5044 2.21749C11.4779 2.19199 11.4561 2.16085 11.4561 2.14832C11.4561 2.13578 11.4417 2.11478 11.424 2.10166C11.4063 2.08853 11.3918 2.06753 11.3918 2.05499C11.3918 2.04246 11.3701 2.01132 11.3436 1.98582C11.317 1.96031 11.2953 1.93084 11.2953 1.92033C11.2953 1.90984 11.2519 1.85738 11.1988 1.80378C11.1458 1.75018 11.1023 1.6984 11.1023 1.68872C11.1023 1.66549 10.6414 1.19149 10.6188 1.19149C10.6091 1.19149 10.5735 1.1617 10.5395 1.1253C10.5055 1.08889 10.4693 1.0591 10.4591 1.0591C10.4488 1.0591 10.4127 1.02931 10.3787 0.992908C10.3447 0.956501 10.307 0.926714 10.295 0.926714C10.283 0.926714 10.2628 0.91182 10.25 0.893617C10.2372 0.875414 10.2155 0.86052 10.2018 0.86052C10.188 0.86052 10.1663 0.845627 10.1535 0.827423C10.1408 0.80922 10.119 0.794326 10.1053 0.794326C10.0915 0.794326 10.0698 0.779433 10.057 0.761229C10.0443 0.743026 10.021 0.728132 10.0052 0.728132C9.98949 0.728132 9.97661 0.720686 9.97661 0.711584C9.97661 0.702482 9.96373 0.695036 9.948 0.695036C9.93225 0.695036 9.90895 0.680142 9.8962 0.661939C9.88345 0.643735 9.86014 0.628842 9.8444 0.628842C9.82867 0.628842 9.81579 0.621395 9.81579 0.612293C9.81579 0.603191 9.80132 0.595745 9.78363 0.595745C9.76594 0.595745 9.75146 0.588298 9.75146 0.579196C9.75146 0.570095 9.73699 0.562648 9.7193 0.562648C9.70161 0.562648 9.68713 0.555201 9.68713 0.546099C9.68713 0.536998 9.67266 0.529551 9.65497 0.529551C9.63728 0.529551 9.62281 0.522104 9.62281 0.513002C9.62281 0.503901 9.60833 0.496454 9.59064 0.496454C9.57295 0.496454 9.55848 0.489007 9.55848 0.479905C9.55848 0.470804 9.54401 0.463357 9.52632 0.463357C9.50863 0.463357 9.49415 0.45591 9.49415 0.446809C9.49415 0.437707 9.47968 0.43026 9.46199 0.43026C9.4443 0.43026 9.42982 0.422813 9.42982 0.413712C9.42982 0.40461 9.41535 0.397163 9.39766 0.397163C9.37997 0.397163 9.3655 0.389716 9.3655 0.380615C9.3655 0.371513 9.34379 0.364066 9.31725 0.364066C9.29072 0.364066 9.26901 0.356619 9.26901 0.347518C9.26901 0.338416 9.25453 0.330969 9.23684 0.330969C9.21915 0.330969 9.20468 0.323522 9.20468 0.314421C9.20468 0.305319 9.18297 0.297872 9.15643 0.297872C9.1299 0.297872 9.10819 0.290426 9.10819 0.281324C9.10819 0.272222 9.08648 0.264775 9.05994 0.264775C9.03341 0.264775 9.0117 0.257329 9.0117 0.248227C9.0117 0.239125 8.98999 0.231679 8.96345 0.231679C8.93692 0.231679 8.9152 0.224232 8.9152 0.21513C8.9152 0.206028 8.89349 0.198582 8.86696 0.198582C8.84042 0.198582 8.81871 0.191135 8.81871 0.182033C8.81871 0.172931 8.78977 0.165485 8.75439 0.165485C8.71901 0.165485 8.69006 0.158038 8.69006 0.148936C8.69006 0.139835 8.66111 0.132388 8.62573 0.132388C8.59035 0.132388 8.5614 0.124941 8.5614 0.115839C8.5614 0.106738 8.53246 0.0992908 8.49708 0.0992908C8.4617 0.0992908 8.43275 0.091844 8.43275 0.0827423C8.43275 0.0735414 8.38986 0.0661939 8.33626 0.0661939C8.28266 0.0661939 8.23977 0.0588463 8.23977 0.0496454C8.23977 0.0399976 8.18617 0.0330969 8.11111 0.0330969C8.03606 0.0330969 7.98246 0.0261962 7.98246 0.0165485C7.98246 0.00589125 7.81091 0 7.5 0C7.18909 0 7.01754 0.00589125 7.01754 0.0165485ZM7.75731 1.83688C7.75731 1.84633 7.80556 1.85343 7.86988 1.85343C7.93421 1.85343 7.98246 1.86053 7.98246 1.86998C7.98246 1.87908 8.01864 1.88652 8.06287 1.88652C8.10709 1.88652 8.14327 1.89397 8.14327 1.90307C8.14327 1.91218 8.17222 1.91962 8.2076 1.91962C8.24298 1.91962 8.27193 1.92707 8.27193 1.93617C8.27193 1.94527 8.30088 1.95272 8.33626 1.95272C8.37164 1.95272 8.40058 1.96017 8.40058 1.96927C8.40058 1.97837 8.4223 1.98582 8.44883 1.98582C8.47537 1.98582 8.49708 1.99326 8.49708 2.00236C8.49708 2.01147 8.51155 2.01891 8.52924 2.01891C8.54693 2.01891 8.5614 2.02636 8.5614 2.03546C8.5614 2.04456 8.58311 2.05201 8.60965 2.05201C8.63618 2.05201 8.65789 2.05946 8.65789 2.06856C8.65789 2.07766 8.67237 2.08511 8.69006 2.08511C8.70775 2.08511 8.72222 2.09255 8.72222 2.10166C8.72222 2.11076 8.7367 2.1182 8.75439 2.1182C8.77208 2.1182 8.78655 2.12565 8.78655 2.13475C8.78655 2.14385 8.80102 2.1513 8.81871 2.1513C8.8364 2.1513 8.85088 2.15875 8.85088 2.16785C8.85088 2.17695 8.86535 2.1844 8.88304 2.1844C8.90073 2.1844 8.9152 2.19184 8.9152 2.20095C8.9152 2.21005 8.92968 2.21749 8.94737 2.21749C8.96506 2.21749 8.97953 2.22494 8.97953 2.23404C8.97953 2.24314 8.99241 2.25059 9.00814 2.25059C9.02389 2.25059 9.04719 2.26548 9.05994 2.28369C9.07269 2.30189 9.09441 2.31678 9.10819 2.31678C9.12197 2.31678 9.14368 2.33168 9.15643 2.34988C9.16919 2.36809 9.18959 2.38298 9.20178 2.38298C9.21396 2.38298 9.24422 2.40532 9.26901 2.43262C9.29379 2.45993 9.32243 2.48227 9.33264 2.48227C9.34284 2.48227 9.39382 2.52695 9.44591 2.58156C9.498 2.63617 9.54844 2.68085 9.55801 2.68085C9.58067 2.68085 9.7193 2.8235 9.7193 2.84682C9.7193 2.85666 9.76272 2.90857 9.81579 2.96218C9.86886 3.01578 9.91228 3.06957 9.91228 3.08172C9.91228 3.09387 9.92675 3.11454 9.94444 3.12766C9.96213 3.14078 9.97661 3.16312 9.97661 3.17731C9.97661 3.19149 9.99108 3.21383 10.0088 3.22695C10.0265 3.24007 10.0409 3.26241 10.0409 3.2766C10.0409 3.29078 10.0554 3.31312 10.0731 3.32624C10.0908 3.33936 10.1053 3.36334 10.1053 3.37954C10.1053 3.39573 10.1125 3.40898 10.1213 3.40898C10.1302 3.40898 10.1374 3.42224 10.1374 3.43842C10.1374 3.45462 10.1519 3.4786 10.1696 3.49173C10.1873 3.50485 10.2018 3.52883 10.2018 3.54503C10.2018 3.56121 10.209 3.57447 10.2178 3.57447C10.2267 3.57447 10.2339 3.58936 10.2339 3.60757C10.2339 3.62577 10.2412 3.64066 10.25 3.64066C10.2588 3.64066 10.2661 3.663 10.2661 3.69031C10.2661 3.71761 10.2733 3.73995 10.2822 3.73995C10.291 3.73995 10.2982 3.75485 10.2982 3.77305C10.2982 3.79125 10.3055 3.80615 10.3143 3.80615C10.3232 3.80615 10.3304 3.82104 10.3304 3.83924C10.3304 3.85745 10.3376 3.87234 10.3465 3.87234C10.3553 3.87234 10.3626 3.89468 10.3626 3.92199C10.3626 3.94929 10.3698 3.97163 10.3787 3.97163C10.3875 3.97163 10.3947 3.99397 10.3947 4.02128C10.3947 4.04858 10.402 4.07092 10.4108 4.07092C10.4197 4.07092 10.4269 4.09326 10.4269 4.12057C10.4269 4.14787 10.4341 4.17021 10.443 4.17021C10.4518 4.17021 10.4591 4.2 10.4591 4.23641C10.4591 4.27281 10.4663 4.3026 10.4751 4.3026C10.484 4.3026 10.4912 4.33239 10.4912 4.36879C10.4912 4.4052 10.4985 4.43499 10.5073 4.43499C10.5163 4.43499 10.5234 4.47912 10.5234 4.53428C10.5234 4.58944 10.5305 4.63357 10.5395 4.63357C10.5488 4.63357 10.5556 4.68873 10.5556 4.76596C10.5556 4.84319 10.5623 4.89835 10.5716 4.89835C10.5816 4.89835 10.5877 4.99213 10.5877 5.14657C10.5877 5.30102 10.5816 5.3948 10.5716 5.3948C10.5623 5.3948 10.5556 5.44996 10.5556 5.52719C10.5556 5.60442 10.5488 5.65957 10.5395 5.65957C10.5306 5.65957 10.5234 5.69681 10.5234 5.74232V5.82506H7.5H4.47661V5.72577C4.47661 5.67061 4.46947 5.62648 4.46053 5.62648C4.45078 5.62648 4.44444 5.55477 4.44444 5.44444C4.44444 5.33412 4.43811 5.26241 4.42836 5.26241C4.41918 5.26241 4.41228 5.21277 4.41228 5.14657C4.41228 5.08038 4.41918 5.03073 4.42836 5.03073C4.43811 5.03073 4.44444 4.95903 4.44444 4.8487C4.44444 4.73837 4.45078 4.66667 4.46053 4.66667C4.46971 4.66667 4.47661 4.61702 4.47661 4.55083C4.47661 4.48463 4.48351 4.43499 4.49269 4.43499C4.50154 4.43499 4.50877 4.4052 4.50877 4.36879C4.50877 4.33239 4.51601 4.3026 4.52485 4.3026C4.5337 4.3026 4.54094 4.27281 4.54094 4.23641C4.54094 4.2 4.54817 4.17021 4.55702 4.17021C4.56586 4.17021 4.5731 4.14787 4.5731 4.12057C4.5731 4.09326 4.58034 4.07092 4.58918 4.07092C4.59803 4.07092 4.60526 4.04858 4.60526 4.02128C4.60526 3.99397 4.6125 3.97163 4.62135 3.97163C4.63019 3.97163 4.63743 3.95674 4.63743 3.93853C4.63743 3.92033 4.64466 3.90544 4.65351 3.90544C4.66235 3.90544 4.66959 3.8831 4.66959 3.85579C4.66959 3.82849 4.67683 3.80615 4.68567 3.80615C4.69452 3.80615 4.70175 3.79125 4.70175 3.77305C4.70175 3.75485 4.70899 3.73995 4.71784 3.73995C4.72668 3.73995 4.73392 3.72506 4.73392 3.70686C4.73392 3.68865 4.74115 3.67376 4.75 3.67376C4.75885 3.67376 4.76608 3.65887 4.76608 3.64066C4.76608 3.62246 4.77332 3.60757 4.78216 3.60757C4.79101 3.60757 4.79825 3.59267 4.79825 3.57447C4.79825 3.55626 4.80548 3.54137 4.81433 3.54137C4.82317 3.54137 4.83041 3.52648 4.83041 3.50827C4.83041 3.49007 4.83765 3.47518 4.84649 3.47518C4.85534 3.47518 4.86257 3.46192 4.86257 3.44574C4.86257 3.42954 4.87705 3.40556 4.89474 3.39244C4.91243 3.37931 4.9269 3.35533 4.9269 3.33913C4.9269 3.32295 4.93414 3.30969 4.94298 3.30969C4.95183 3.30969 4.95906 3.29779 4.95906 3.28323C4.95906 3.26869 4.98077 3.2359 5.00731 3.2104C5.03384 3.1849 5.05556 3.15376 5.05556 3.14123C5.05556 3.12869 5.07003 3.10769 5.08772 3.09456C5.10541 3.08144 5.11988 3.06112 5.11988 3.0494C5.11988 3.02369 5.6108 2.51537 5.63563 2.51537C5.64525 2.51537 5.68092 2.48558 5.71491 2.44917C5.74891 2.41277 5.78654 2.38298 5.79855 2.38298C5.81057 2.38298 5.83081 2.36809 5.84357 2.34988C5.85632 2.33168 5.87962 2.31678 5.89537 2.31678C5.9111 2.31678 5.92398 2.30934 5.92398 2.30024C5.92398 2.29113 5.93686 2.28369 5.95259 2.28369C5.96833 2.28369 5.99163 2.26879 6.00439 2.25059C6.01714 2.23239 6.04044 2.21749 6.05619 2.21749C6.07191 2.21749 6.0848 2.21005 6.0848 2.20095C6.0848 2.19184 6.09927 2.1844 6.11696 2.1844C6.13465 2.1844 6.14912 2.17695 6.14912 2.16785C6.14912 2.15875 6.1636 2.1513 6.18129 2.1513C6.19898 2.1513 6.21345 2.14385 6.21345 2.13475C6.21345 2.12565 6.22792 2.1182 6.24561 2.1182C6.2633 2.1182 6.27778 2.11076 6.27778 2.10166C6.27778 2.09255 6.29225 2.08511 6.30994 2.08511C6.32763 2.08511 6.34211 2.07766 6.34211 2.06856C6.34211 2.05946 6.36382 2.05201 6.39035 2.05201C6.41689 2.05201 6.4386 2.04456 6.4386 2.03546C6.4386 2.02636 6.46031 2.01891 6.48684 2.01891C6.51338 2.01891 6.53509 2.01147 6.53509 2.00236C6.53509 1.99326 6.54956 1.98582 6.56725 1.98582C6.58494 1.98582 6.59942 1.97837 6.59942 1.96927C6.59942 1.96017 6.62836 1.95272 6.66374 1.95272C6.69912 1.95272 6.72807 1.94527 6.72807 1.93617C6.72807 1.92707 6.75702 1.91962 6.7924 1.91962C6.82778 1.91962 6.85673 1.91218 6.85673 1.90307C6.85673 1.89397 6.89291 1.88652 6.93713 1.88652C6.98136 1.88652 7.01754 1.87908 7.01754 1.86998C7.01754 1.86053 7.06579 1.85343 7.13012 1.85343C7.19444 1.85343 7.24269 1.84633 7.24269 1.83688C7.24269 1.82654 7.33918 1.82033 7.5 1.82033C7.66082 1.82033 7.75731 1.82654 7.75731 1.83688ZM7.69298 7.79433C7.69298 7.80343 7.72917 7.81087 7.77339 7.81087C7.81762 7.81087 7.8538 7.81832 7.8538 7.82742C7.8538 7.83652 7.87551 7.84397 7.90205 7.84397C7.92858 7.84397 7.95029 7.85142 7.95029 7.86052C7.95029 7.86962 7.972 7.87707 7.99854 7.87707C8.02507 7.87707 8.04678 7.88452 8.04678 7.89362C8.04678 7.90272 8.06126 7.91017 8.07895 7.91017C8.09664 7.91017 8.11111 7.91761 8.11111 7.92671C8.11111 7.93582 8.12558 7.94326 8.14327 7.94326C8.16096 7.94326 8.17544 7.95071 8.17544 7.95981C8.17544 7.96891 8.18832 7.97636 8.20405 7.97636C8.21979 7.97636 8.24309 7.99125 8.25585 8.00946C8.2686 8.02766 8.28838 8.04255 8.29982 8.04255C8.31123 8.04255 8.38925 8.1132 8.47316 8.19955C8.55708 8.2859 8.62573 8.36617 8.62573 8.37792C8.62573 8.38969 8.6402 8.41005 8.65789 8.42317C8.67558 8.43629 8.69006 8.46027 8.69006 8.47647C8.69006 8.49266 8.6973 8.50591 8.70614 8.50591C8.71499 8.50591 8.72222 8.5208 8.72222 8.53901C8.72222 8.55721 8.72946 8.5721 8.7383 8.5721C8.74715 8.5721 8.75439 8.587 8.75439 8.6052C8.75439 8.6234 8.76162 8.6383 8.77047 8.6383C8.77931 8.6383 8.78655 8.65319 8.78655 8.6714C8.78655 8.6896 8.79379 8.70449 8.80263 8.70449C8.81148 8.70449 8.81871 8.72683 8.81871 8.75414C8.81871 8.78144 8.82595 8.80378 8.8348 8.80378C8.84364 8.80378 8.85088 8.83357 8.85088 8.86998C8.85088 8.90638 8.85811 8.93617 8.86696 8.93617C8.87704 8.93617 8.88304 9.04097 8.88304 9.21749C8.88304 9.39402 8.87704 9.49882 8.86696 9.49882C8.85811 9.49882 8.85088 9.52861 8.85088 9.56501C8.85088 9.60142 8.84364 9.63121 8.8348 9.63121C8.82595 9.63121 8.81871 9.65355 8.81871 9.68085C8.81871 9.70816 8.81148 9.7305 8.80263 9.7305C8.79379 9.7305 8.78655 9.74539 8.78655 9.76359C8.78655 9.7818 8.77931 9.79669 8.77047 9.79669C8.76162 9.79669 8.75439 9.81158 8.75439 9.82979C8.75439 9.84799 8.74715 9.86288 8.7383 9.86288C8.72946 9.86288 8.72222 9.87778 8.72222 9.89598C8.72222 9.91418 8.71499 9.92908 8.70614 9.92908C8.6973 9.92908 8.69006 9.94233 8.69006 9.95852C8.69006 9.97472 8.67558 9.9987 8.65789 10.0118C8.6402 10.0249 8.62573 10.0453 8.62573 10.0571C8.62573 10.085 8.35913 10.3593 8.332 10.3593C8.32056 10.3593 8.30076 10.3742 8.28801 10.3924C8.27526 10.4106 8.25506 10.4255 8.24311 10.4255C8.17756 10.4255 8.17544 10.4465 8.17544 11.0946C8.17544 11.498 8.16979 11.7163 8.15936 11.7163C8.15051 11.7163 8.14327 11.7387 8.14327 11.766C8.14327 11.7933 8.13604 11.8156 8.12719 11.8156C8.11835 11.8156 8.11111 11.8305 8.11111 11.8487C8.11111 11.8669 8.10387 11.8818 8.09503 11.8818C8.08618 11.8818 8.07895 11.8931 8.07895 11.9069C8.07895 11.9375 7.87887 12.1466 7.8496 12.1466C7.83814 12.1466 7.81831 12.1615 7.80556 12.1797C7.79193 12.1991 7.76392 12.2128 7.73767 12.2128C7.7131 12.2128 7.69298 12.2202 7.69298 12.2293C7.69298 12.2393 7.6233 12.2459 7.51608 12.2459C7.40886 12.2459 7.33918 12.2393 7.33918 12.2293C7.33918 12.2202 7.31747 12.2128 7.29094 12.2128C7.2644 12.2128 7.24269 12.2053 7.24269 12.1962C7.24269 12.1871 7.22822 12.1797 7.21053 12.1797C7.19284 12.1797 7.17836 12.1722 7.17836 12.1631C7.17836 12.154 7.16738 12.1466 7.15393 12.1466C7.12214 12.1466 6.92105 11.9397 6.92105 11.9069C6.92105 11.8931 6.91382 11.8818 6.90497 11.8818C6.89613 11.8818 6.88889 11.8595 6.88889 11.8322C6.88889 11.8048 6.88165 11.7825 6.87281 11.7825C6.86396 11.7825 6.85673 11.7527 6.85673 11.7163C6.85673 11.6799 6.84949 11.6501 6.84064 11.6501C6.83022 11.6501 6.82456 11.4429 6.82456 11.0615C6.82456 10.4533 6.82173 10.4255 6.7598 10.4255C6.74944 10.4255 6.72069 10.4032 6.69591 10.3759C6.67112 10.3486 6.64276 10.3262 6.63287 10.3262C6.60773 10.3262 6.40643 10.1165 6.40643 10.0902C6.40643 10.0784 6.39196 10.058 6.37427 10.0449C6.35658 10.0318 6.34211 10.0095 6.34211 9.99527C6.34211 9.98109 6.32763 9.95875 6.30994 9.94563C6.29225 9.9325 6.27778 9.90853 6.27778 9.89232C6.27778 9.87614 6.27054 9.86288 6.2617 9.86288C6.25285 9.86288 6.24561 9.84799 6.24561 9.82979C6.24561 9.81158 6.23838 9.79669 6.22953 9.79669C6.22069 9.79669 6.21345 9.77435 6.21345 9.74705C6.21345 9.71974 6.20621 9.6974 6.19737 9.6974C6.18852 9.6974 6.18129 9.67506 6.18129 9.64775C6.18129 9.62045 6.17405 9.59811 6.1652 9.59811C6.15636 9.59811 6.14912 9.56832 6.14912 9.53192C6.14912 9.49551 6.14189 9.46572 6.13304 9.46572C6.12304 9.46572 6.11696 9.37194 6.11696 9.21749C6.11696 9.06305 6.12304 8.96927 6.13304 8.96927C6.14189 8.96927 6.14912 8.93203 6.14912 8.88653C6.14912 8.84102 6.15636 8.80378 6.1652 8.80378C6.17405 8.80378 6.18129 8.78144 6.18129 8.75414C6.18129 8.72683 6.18852 8.70449 6.19737 8.70449C6.20621 8.70449 6.21345 8.6896 6.21345 8.6714C6.21345 8.65319 6.22069 8.6383 6.22953 8.6383C6.23838 8.6383 6.24561 8.6234 6.24561 8.6052C6.24561 8.587 6.25285 8.5721 6.2617 8.5721C6.27054 8.5721 6.27778 8.55721 6.27778 8.53901C6.27778 8.5208 6.28501 8.50591 6.29386 8.50591C6.3027 8.50591 6.30994 8.49401 6.30994 8.47945C6.30994 8.4649 6.33165 8.43212 6.35819 8.40662C6.38472 8.38112 6.40643 8.35194 6.40643 8.3418C6.40643 8.31593 6.64256 8.07565 6.66797 8.07565C6.67944 8.07565 6.69924 8.06076 6.71199 8.04255C6.72474 8.02435 6.74645 8.00946 6.76023 8.00946C6.77402 8.00946 6.79573 7.99456 6.80848 7.97636C6.82123 7.95816 6.84454 7.94326 6.86028 7.94326C6.87601 7.94326 6.88889 7.93582 6.88889 7.92671C6.88889 7.91761 6.90336 7.91017 6.92105 7.91017C6.93874 7.91017 6.95322 7.90272 6.95322 7.89362C6.95322 7.88452 6.97493 7.87707 7.00146 7.87707C7.028 7.87707 7.04971 7.86962 7.04971 7.86052C7.04971 7.85142 7.07142 7.84397 7.09795 7.84397C7.12449 7.84397 7.1462 7.83652 7.1462 7.82742C7.1462 7.81832 7.18238 7.81087 7.22661 7.81087C7.27083 7.81087 7.30702 7.80343 7.30702 7.79433C7.30702 7.78422 7.38207 7.77778 7.5 7.77778C7.61793 7.77778 7.69298 7.78422 7.69298 7.79433Z" fill="#CE1F6A"/>
</svg>
