<svg width="15" height="14" viewBox="0 0 15 14" fill="none"
    xmlns="http://www.w3.org/2000/svg">
    <path d="M0.709945 0.0326335C0.525896 0.0764549 0.382746 0.164098 0.251282 0.31309C0.00296143 0.584782 -0.00872425 0.669503 0.00296143 2.16819C0.0117257 3.37182 0.0117257 3.39811 0.0759969 3.49744C0.160718 3.63474 0.300946 3.71362 0.464546 3.71362C0.628145 3.71362 0.768374 3.63474 0.853095 3.49744C0.917366 3.39811 0.917366 3.37182 0.92613 2.16235L0.934895 0.92951L2.16773 0.920745C3.3772 0.911981 3.40349 0.911981 3.50282 0.84771C3.64013 0.762989 3.71901 0.622761 3.71901 0.459161C3.71901 0.295562 3.64013 0.155333 3.50282 0.0706122C3.40349 0.00634098 3.38012 0.00634098 2.12976 0.000498056C1.19198 -0.00242329 0.820959 0.00634098 0.709945 0.0326335Z" fill="#EC7F3C"/>
    <path d="M10.6758 0.023864C10.5472 0.0618424 10.4129 0.204992 10.3749 0.34522C10.3106 0.576012 10.4596 0.833097 10.6904 0.897368C10.7576 0.914897 11.2571 0.926583 11.9729 0.926583H13.1473L13.1561 2.15942C13.1648 3.37181 13.1648 3.3981 13.2291 3.49743C13.4102 3.78665 13.8368 3.78665 14.012 3.49159C14.0675 3.3981 14.0705 3.3426 14.0705 2.08054C14.0705 0.538034 14.0734 0.558484 13.7959 0.280949C13.5183 0.00341415 13.5475 0.00925684 12.0547 0.000492573C11.3127 -0.00242877 10.7313 0.0063355 10.6758 0.023864Z" fill="#EC7F3C"/>
    <path d="M6.73087 1.65698C5.07734 1.8644 3.97889 3.40691 4.32361 5.03998C4.42879 5.55123 4.71801 6.0654 5.10071 6.43642C5.47173 6.78991 5.8077 6.98565 6.31018 7.13756C6.54974 7.2106 6.61401 7.21936 7.05514 7.21936C7.49628 7.21936 7.56055 7.2106 7.80011 7.13756C8.30259 6.98565 8.63855 6.78991 9.00665 6.43642C9.886 5.59213 10.1051 4.2658 9.55004 3.16735C9.26958 2.6152 8.77586 2.14485 8.20034 1.88485C7.78258 1.69495 7.172 1.60147 6.73087 1.65698Z" fill="#EC7F3C"/>
    <path d="M4.56918 7.03238C3.63725 7.69555 3.0851 8.69175 3.00622 9.84571C2.98285 10.1846 3.02375 10.4037 3.15522 10.6725C3.34219 11.0552 3.7395 11.3444 4.16311 11.4116C4.42603 11.4554 9.69043 11.4554 9.94752 11.4116C10.4967 11.3239 10.9437 10.9003 11.0752 10.3453C11.1307 10.1145 11.1161 9.74054 11.0431 9.34323C10.8619 8.39377 10.2864 7.5261 9.47425 6.98272L9.27851 6.85126L9.1266 6.98272C8.92502 7.158 8.52771 7.39172 8.24141 7.50273C7.83241 7.66049 7.5315 7.71307 7.05531 7.71307C6.57912 7.71307 6.27822 7.66049 5.86629 7.50273C5.58292 7.39172 5.20898 7.17261 4.99571 6.98856C4.91099 6.91553 4.83503 6.8571 4.82627 6.8571C4.8175 6.8571 4.70357 6.93598 4.56918 7.03238Z" fill="#EC7F3C"/>
    <path d="M0.327275 10.3073C0.198733 10.3453 0.0643475 10.4885 0.026369 10.6287C0.00591908 10.7046 -0.00284518 11.1691 0.00299766 12.0076C0.0146833 13.4741 0.0117619 13.4479 0.286375 13.7254C0.56391 14.0029 0.54346 14 2.08597 14C3.386 14 3.40061 14 3.50286 13.9357C3.79208 13.7546 3.79208 13.3281 3.49702 13.1528C3.40645 13.0973 3.33926 13.0944 2.16777 13.0856L0.934931 13.0768L0.926166 11.844C0.917402 10.6725 0.914481 10.6053 0.858974 10.5147C0.753803 10.3395 0.52301 10.2489 0.327275 10.3073Z" fill="#EC7F3C"/>
    <path d="M13.4804 10.3073C13.3548 10.3453 13.2175 10.4885 13.1795 10.6199C13.162 10.6871 13.1503 11.1867 13.1503 11.9024V13.0768L11.9175 13.0856C10.7051 13.0944 10.6788 13.0944 10.5795 13.1586C10.2903 13.3398 10.2903 13.7663 10.5853 13.9416C10.6788 13.9971 10.7343 14 11.9964 14C13.5389 14 13.5184 14.0029 13.796 13.7254C14.0735 13.4479 14.0706 13.4683 14.0706 11.9258C14.0706 10.6637 14.0676 10.6082 14.0121 10.5147C13.907 10.3395 13.6762 10.2489 13.4804 10.3073Z" fill="#EC7F3C"/>
</svg>
