<svg width="15" height="15" viewBox="0 0 15 15" fill="none"
    xmlns="http://www.w3.org/2000/svg">
    <path d="M14.0303 7.81592C14.0303 11.6819 10.8963 14.8159 7.03027 14.8159C3.16428 14.8159 0.0302734 11.6819 0.0302734 7.81592C0.0302734 3.94992 3.16428 0.815918 7.03027 0.815918C10.8963 0.815918 14.0303 3.94992 14.0303 7.81592ZM1.43027 7.81592C1.43027 10.9087 3.93748 13.4159 7.03027 13.4159C10.1231 13.4159 12.6303 10.9087 12.6303 7.81592C12.6303 4.72312 10.1231 2.21592 7.03027 2.21592C3.93748 2.21592 1.43027 4.72312 1.43027 7.81592Z" fill="#EC7F3C"/>
    <path d="M4 8L6 10L10 6" stroke="#EC7F3C" stroke-width="1.2" stroke-linecap="round" stroke-linejoin="round"/>
</svg>
