<svg width="14" height="14" viewBox="0 0 14 14" fill="none"
    xmlns="http://www.w3.org/2000/svg">
    <path d="M14 7C14 10.866 10.866 14 7 14C3.13401 14 0 10.866 0 7C0 3.13401 3.13401 0 7 0C10.866 0 14 3.13401 14 7ZM1.4 7C1.4 10.0928 3.90721 12.6 7 12.6C10.0928 12.6 12.6 10.0928 12.6 7C12.6 3.90721 10.0928 1.4 7 1.4C3.90721 1.4 1.4 3.90721 1.4 7Z" fill="#F34256"/>
    <path d="M5.00906 4.76107C4.70377 4.85664 4.51521 5.1911 4.58704 5.50168C4.62296 5.651 4.65887 5.69281 5.37421 6.41251L6.12546 7.16506L5.38918 7.90567C4.58704 8.70899 4.56908 8.73587 4.59303 9.0345C4.61996 9.35105 4.88036 9.58398 5.2066 9.58398C5.29639 9.58398 5.41013 9.56308 5.464 9.5362C5.51788 9.50933 5.88602 9.16291 6.28709 8.76872L7.01141 8.04603L7.73872 8.76872C8.13679 9.16291 8.50493 9.50933 8.55881 9.5362C8.61268 9.56308 8.72642 9.58398 8.81621 9.58398C9.14245 9.58398 9.40285 9.35105 9.42979 9.0345C9.45373 8.73587 9.43577 8.70899 8.63364 7.90567L7.89735 7.16506L8.6486 6.41251C9.39088 5.66593 9.39985 5.65398 9.43278 5.49272C9.52556 5.03582 9.12749 4.64162 8.67853 4.74614C8.52888 4.78198 8.48698 4.81781 7.76865 5.53155L7.01141 6.28111L6.25716 5.53453C5.56577 4.85066 5.48795 4.78198 5.35925 4.74913C5.18864 4.71031 5.17667 4.71031 5.00906 4.76107Z" fill="#F34256"/>
</svg>
