<svg width="54" height="54" viewBox="0 0 54 54" fill="none" xmlns="http://www.w3.org/2000/svg">
<path d="M25.4067 0.0293808C17.5319 0.732861 11.2717 3.92476 6.52184 9.67858C4.93856 11.6 3.93858 13.196 2.88653 15.4534C0.990751 19.5588 0.199107 23.5696 0.407434 28.053C0.730342 34.9618 3.42818 41.0621 8.29263 45.913C11.9904 49.5983 16.6882 52.1288 21.7506 53.1472C22.7505 53.3467 23.3443 53.2627 23.9276 52.8217C24.6567 52.2548 24.9172 51.0473 24.4901 50.1968C24.1151 49.4618 23.7193 49.2308 22.2297 48.8949C15.9174 47.4774 10.6155 43.5295 7.45932 37.9017C5.50104 34.4158 4.4594 30.0689 4.60523 26.0056C4.88647 18.5508 8.62595 11.9465 14.9383 7.78864C16.4486 6.80167 18.8652 5.70971 20.8756 5.12172C25.7817 3.68327 31.3441 4.09275 36.1356 6.25569C37.2918 6.77017 39.3542 7.93563 39.3647 8.07213C39.3647 8.11413 38.9897 8.68111 38.5314 9.34259C37.3647 11.0435 37.2814 11.2955 37.8335 11.5055C38.198 11.6525 45.7082 10.949 46.1249 10.739C46.5207 10.5291 46.6561 10.2771 46.6561 9.76258C46.6561 9.27959 44.7395 2.23431 44.5103 1.87732C44.3541 1.63583 44.1979 1.59383 43.8958 1.70933C43.8125 1.75133 43.3333 2.36031 42.8437 3.07429C42.3542 3.78827 41.9167 4.39724 41.8542 4.42875C41.8021 4.47074 41.2396 4.17675 40.6146 3.79876C37.6668 2.01382 34.2711 0.785358 30.8337 0.281372C29.4483 0.0818787 26.4379 -0.0651169 25.4067 0.0293808Z" fill="#9B9B9B"/>
<path d="M24.9378 9.5844C24.4587 9.83639 24.2816 10.0359 24.1045 10.5084C23.9587 10.8864 23.9483 11.9783 23.9691 19.7376L24.0003 28.5468L31.9689 32.7047C39.7082 36.7471 39.9582 36.873 40.5311 36.873C41.1874 36.873 41.5415 36.6736 41.9478 36.0856C42.2707 35.6026 42.2602 34.7941 41.9269 34.2901C41.6353 33.8596 41.8019 33.9541 33.5313 29.6493L27.4377 26.4784L27.3857 18.5511L27.3336 10.6239L27.0836 10.2249C26.6461 9.5109 25.6461 9.20641 24.9378 9.5844Z" fill="#9B9B9B"/>
<path d="M49.0313 15.6743C48.3855 15.8738 47.8543 16.4933 47.6876 17.2282C47.5835 17.7322 47.5939 17.8477 47.896 18.7612C48.4689 20.4831 48.9063 20.9976 49.9271 21.1341C50.8438 21.2706 51.7083 20.8191 52.1562 19.9792C52.4375 19.4437 52.3646 18.6352 51.9375 17.5117C51.4896 16.3358 51.1042 15.8843 50.3646 15.6638C49.7501 15.4748 49.6667 15.4748 49.0313 15.6743Z" fill="#9B9B9B"/>
<path d="M50.5315 23.9789C50.0732 24.1994 49.6045 24.7558 49.4795 25.2388C49.3337 25.7638 49.3337 27.4123 49.4795 27.9477C49.7503 28.9557 50.5836 29.5227 51.6565 29.4492C53.1669 29.3442 53.8439 28.0527 53.5627 25.8688C53.4273 24.8923 53.094 24.3359 52.4482 24.0104C51.9065 23.7584 51.0211 23.7374 50.5315 23.9789Z" fill="#9B9B9B"/>
<path d="M49.5186 32.2841C48.8624 32.6096 48.5499 33.0191 48.154 34.1531C47.852 35.0035 47.7895 35.308 47.8207 35.791C47.8832 36.6205 48.2582 37.177 49.0186 37.5235C49.7061 37.8384 50.2998 37.8069 50.9769 37.3975C51.5394 37.072 51.6956 36.82 52.1435 35.5285C52.5498 34.3421 52.5602 33.8696 52.206 33.1766C51.7373 32.2526 50.4561 31.8326 49.5186 32.2841Z" fill="#9B9B9B"/>
<path d="M45.6463 39.8338C45.0525 40.1593 44.0526 41.2933 43.7297 42.0178C43.2713 43.0152 43.7192 44.2437 44.7296 44.7687C45.1671 44.9997 46.0942 44.9892 46.5837 44.7582C47.0004 44.5482 48.1149 43.2672 48.4483 42.6058C48.7191 42.0703 48.6983 41.1883 48.3962 40.6528C48.0629 40.0543 47.4483 39.6553 46.7504 39.5923C46.2712 39.5398 46.115 39.5713 45.6463 39.8338Z" fill="#9B9B9B"/>
<path d="M39.707 45.472C39.5299 45.556 38.9986 45.871 38.5299 46.165C37.4779 46.8475 37.1758 47.3095 37.1758 48.2229C37.1758 48.9894 37.4674 49.5459 38.082 49.9869C38.457 50.2494 38.6341 50.3019 39.1757 50.3019C39.7695 50.3124 39.9153 50.2704 40.634 49.8504C41.0819 49.5984 41.6132 49.2414 41.8215 49.0734C43.2798 47.8555 42.5194 45.4615 40.6444 45.3565C40.2694 45.3355 39.9153 45.3775 39.707 45.472Z" fill="#9B9B9B"/>
<path d="M31.5427 48.9369C30.4386 49.1889 30.1365 49.3464 29.7407 49.8609C28.9907 50.8584 29.3344 52.4438 30.4281 53.0003C31.001 53.2943 31.6364 53.2943 32.8864 52.9898C33.7405 52.7903 33.9176 52.7063 34.3134 52.3178C35.3655 51.2993 35.1051 49.5984 33.803 48.9474C33.1781 48.6324 32.8447 48.6324 31.5427 48.9369Z" fill="#9B9B9B"/>
</svg>
